<?xml version="1.0" encoding="UTF-8" ?>
<!DOCTYPE svg PUBLIC "-//W3C//DTD SVG 1.1//EN" "http://www.w3.org/Graphics/SVG/1.1/DTD/svg11.dtd">
<svg width="1333pt" height="750pt" viewBox="0 0 1333 750" version="1.1" xmlns="http://www.w3.org/2000/svg">
<path fill="#1a1b1e" d=" M 0.00 0.00 L 1333.00 0.00 L 1333.00 750.00 L 49.05 750.00 C 50.54 749.10 52.01 748.17 53.53 747.33 C 60.00 744.69 67.22 744.12 73.32 740.53 C 78.43 737.51 82.10 732.56 84.02 726.99 C 85.07 724.30 86.30 721.43 89.00 720.02 C 92.07 718.12 95.07 716.10 98.00 713.98 C 103.87 709.92 111.25 709.03 117.29 705.29 C 122.98 701.53 125.74 695.01 129.69 689.71 C 134.03 683.37 141.57 680.26 146.13 674.15 C 148.74 670.54 149.66 666.09 150.65 661.84 C 158.84 660.77 168.48 659.97 173.52 652.41 C 174.52 650.75 175.33 648.98 176.07 647.21 C 178.55 640.88 180.59 634.40 183.11 628.10 C 183.85 626.09 185.23 624.45 186.71 622.96 C 193.61 622.04 200.72 621.36 207.15 618.55 C 210.40 616.34 213.31 613.39 214.60 609.61 C 216.63 604.63 217.30 598.98 220.61 594.61 C 223.58 591.91 227.92 591.92 231.50 590.49 C 237.03 588.94 240.17 583.72 244.96 580.94 C 249.11 578.48 251.53 574.17 254.88 570.85 C 258.88 566.95 259.73 560.75 264.46 557.47 C 271.88 551.70 279.33 545.77 284.81 538.03 C 355.60 570.71 433.84 587.67 511.86 585.54 C 560.15 584.57 608.21 575.98 654.14 561.12 C 690.02 549.14 724.70 533.52 757.29 514.28 C 763.30 510.71 769.34 507.15 774.96 502.97 C 799.97 517.85 824.68 533.25 849.38 548.66 C 870.39 562.11 891.66 575.20 912.05 589.61 C 923.79 596.32 938.01 595.71 951.06 594.67 C 953.57 594.32 955.18 596.69 956.99 598.04 C 963.71 604.58 973.40 609.06 982.89 607.10 C 992.09 605.30 997.42 596.74 1005.08 592.11 C 1012.41 601.19 1021.30 609.69 1032.65 613.33 C 1040.91 615.99 1050.83 616.57 1058.13 611.12 C 1065.01 606.39 1066.42 597.07 1073.57 592.57 C 1078.81 595.08 1082.76 599.55 1087.84 602.37 C 1095.87 607.71 1106.02 611.03 1115.64 608.66 C 1123.63 606.79 1130.04 600.17 1132.29 592.38 C 1133.65 588.07 1133.49 583.51 1134.31 579.11 C 1135.08 574.19 1139.69 569.63 1144.91 570.38 C 1152.64 571.13 1160.12 574.65 1168.03 573.27 C 1177.69 572.54 1186.97 566.07 1189.57 556.50 C 1193.54 542.87 1187.63 528.84 1180.85 517.17 C 1178.03 512.79 1179.95 507.42 1182.31 503.32 C 1186.19 495.08 1192.94 488.42 1195.75 479.65 C 1197.26 475.09 1199.39 470.69 1200.15 465.92 C 1200.61 460.26 1199.91 454.59 1199.74 448.94 C 1199.66 445.18 1198.18 441.69 1196.97 438.21 C 1195.02 432.87 1193.62 427.27 1190.69 422.35 C 1186.82 415.88 1183.45 409.10 1179.00 403.00 C 1156.24 370.91 1128.96 342.42 1103.45 312.56 C 1088.77 295.63 1074.11 278.62 1057.94 263.08 C 1042.07 248.17 1024.62 234.62 1004.97 225.04 C 998.53 221.76 991.83 218.98 985.50 215.47 C 984.19 214.62 982.43 213.91 982.13 212.19 C 980.83 207.64 980.31 202.92 979.43 198.29 C 976.35 184.21 972.75 170.01 965.61 157.36 C 961.85 149.59 956.10 142.99 949.60 137.39 C 946.01 134.26 941.50 132.59 937.15 130.84 C 936.37 126.81 935.30 122.85 934.29 118.88 C 932.53 111.02 928.14 104.03 923.22 97.78 C 920.14 93.76 914.19 92.19 913.04 86.80 C 911.04 80.54 906.75 75.30 901.40 71.58 C 896.89 68.70 894.97 63.41 890.98 60.02 C 888.43 57.67 885.22 56.28 882.17 54.74 C 878.92 53.13 876.34 50.47 873.10 48.86 C 869.73 47.16 865.83 46.97 862.46 45.29 C 860.00 44.18 857.60 42.70 854.86 42.50 C 852.60 42.28 850.32 42.52 848.07 42.21 C 844.98 41.38 842.19 39.54 838.96 39.24 C 835.83 38.94 832.94 40.41 830.11 41.46 C 826.23 39.06 821.91 36.45 817.14 37.32 C 813.24 37.70 811.14 41.35 809.03 44.17 C 805.24 40.21 800.81 36.03 795.00 35.80 C 791.35 35.31 788.26 37.63 785.83 40.05 C 784.44 41.35 783.06 42.67 781.67 43.97 C 779.41 43.67 777.11 43.18 775.34 41.65 C 770.64 37.99 765.27 34.02 758.99 34.47 C 752.25 34.89 747.66 40.67 741.38 42.39 C 737.21 43.61 733.39 40.82 729.73 39.27 C 724.78 37.08 719.11 34.75 713.72 36.68 C 706.64 38.55 702.07 45.30 694.96 47.11 C 686.85 46.72 679.47 41.29 671.15 42.89 C 664.11 45.10 661.43 52.73 655.61 56.55 C 651.85 59.27 647.15 57.45 642.96 57.31 C 639.17 57.18 634.98 56.42 631.59 58.60 C 624.61 61.89 623.19 70.88 616.76 74.74 C 609.36 76.09 600.67 74.15 594.49 79.48 C 590.34 83.78 588.83 89.80 585.76 94.80 C 583.70 98.06 579.52 98.50 576.08 99.17 C 570.09 100.02 563.16 101.09 559.36 106.35 C 554.64 112.04 554.53 120.21 549.85 125.84 C 542.95 129.96 534.10 130.32 527.96 135.93 C 520.30 142.64 520.25 153.77 514.84 161.84 C 508.20 167.47 499.30 169.85 492.93 175.93 C 486.19 181.63 482.34 189.81 479.46 197.97 C 463.39 195.76 447.24 193.53 430.98 194.27 C 414.12 194.64 397.46 198.60 381.85 204.87 C 361.82 212.91 343.57 224.67 325.90 236.93 C 275.11 272.99 229.74 315.89 184.23 358.23 C 175.27 366.60 166.16 374.82 157.58 383.58 C 151.61 389.79 144.79 396.75 144.66 405.96 C 144.71 424.28 153.44 441.36 164.42 455.58 C 181.27 476.94 203.75 492.87 226.53 507.32 C 224.18 510.30 222.49 514.07 218.98 515.90 C 213.46 519.01 207.45 521.37 202.64 525.62 C 196.51 529.85 192.02 535.85 187.29 541.50 C 185.09 544.26 183.39 547.42 180.87 549.95 C 175.99 552.97 170.86 555.59 165.43 557.49 C 160.28 559.51 154.26 561.19 151.31 566.34 C 148.26 570.79 149.39 576.90 146.19 581.21 C 141.50 585.20 135.30 586.88 129.47 588.53 C 122.09 590.60 113.49 590.81 107.82 596.66 C 105.78 598.73 103.89 601.09 103.07 603.94 C 102.63 605.64 102.25 607.37 101.85 609.09 C 95.08 609.86 87.69 609.80 81.89 613.90 C 74.11 619.78 66.72 626.28 58.26 631.22 C 54.17 633.23 50.80 636.33 47.09 638.91 C 39.07 643.47 30.70 647.37 22.40 651.40 C 19.64 652.74 16.72 653.68 13.79 654.59 C 11.96 655.17 10.13 655.79 8.34 656.50 C 6.08 657.42 3.86 658.45 1.72 659.64 C 1.29 659.90 0.43 660.41 0.00 660.67 L 0.00 0.00 Z" />
<path fill="#b3b3b3" d=" M 741.38 42.39 C 747.66 40.67 752.25 34.89 758.99 34.47 C 765.27 34.02 770.64 37.99 775.34 41.65 C 777.11 43.18 779.41 43.67 781.67 43.97 C 782.47 47.98 782.94 52.22 785.12 55.78 C 787.38 59.14 790.65 61.61 793.37 64.57 C 789.82 67.56 786.37 72.22 781.17 71.61 C 774.68 71.39 769.90 66.44 765.64 62.12 C 763.63 58.76 762.71 54.84 760.43 51.64 C 758.09 48.42 754.04 47.36 750.50 46.07 C 750.33 47.62 748.93 49.46 750.20 50.84 C 753.37 54.75 757.75 57.39 761.72 60.41 C 761.15 60.91 760.58 61.41 760.01 61.90 C 753.89 64.82 748.32 70.22 741.09 69.65 C 733.47 69.24 727.51 63.30 720.01 62.46 C 711.10 64.22 705.59 74.10 696.02 73.75 C 689.09 74.09 682.91 69.90 676.08 69.76 C 667.38 71.42 665.43 82.46 657.36 85.36 C 650.50 88.01 643.13 84.04 636.20 85.89 C 629.09 89.62 628.39 99.39 621.51 103.47 C 615.76 106.89 608.80 106.07 602.50 107.52 C 599.99 107.98 598.54 110.28 597.31 112.28 C 594.34 117.33 592.92 123.41 588.58 127.57 C 583.38 132.02 576.28 132.73 570.09 135.08 C 567.88 135.98 565.36 136.90 564.19 139.14 C 560.21 146.12 559.69 154.94 553.84 160.84 C 547.55 166.90 538.56 168.63 531.48 173.48 C 528.21 175.57 527.36 179.62 526.06 183.01 C 524.30 188.83 522.19 194.53 519.85 200.14 C 506.35 201.57 492.81 199.93 479.46 197.97 C 482.34 189.81 486.19 181.63 492.93 175.93 C 499.30 169.85 508.20 167.47 514.84 161.84 C 520.25 153.77 520.30 142.64 527.96 135.93 C 534.10 130.32 542.95 129.96 549.85 125.84 C 554.53 120.21 554.64 112.04 559.36 106.35 C 563.16 101.09 570.09 100.02 576.08 99.17 C 579.52 98.50 583.70 98.06 585.76 94.80 C 588.83 89.80 590.34 83.78 594.49 79.48 C 600.67 74.15 609.36 76.09 616.76 74.74 C 623.19 70.88 624.61 61.89 631.59 58.60 C 634.98 56.42 639.17 57.18 642.96 57.31 C 647.15 57.45 651.85 59.27 655.61 56.55 C 661.43 52.73 664.11 45.10 671.15 42.89 C 679.47 41.29 686.85 46.72 694.96 47.11 C 702.07 45.30 706.64 38.55 713.72 36.68 C 719.11 34.75 724.78 37.08 729.73 39.27 C 733.39 40.82 737.21 43.61 741.38 42.39 Z" />
<path fill="#b3b3b3" d=" M 785.83 40.05 C 788.26 37.63 791.35 35.31 795.00 35.80 C 800.81 36.03 805.24 40.21 809.03 44.17 C 811.14 41.35 813.24 37.70 817.14 37.32 C 821.91 36.45 826.23 39.06 830.11 41.46 C 832.94 40.41 835.83 38.94 838.96 39.24 C 842.19 39.54 844.98 41.38 848.07 42.21 C 850.32 42.52 852.60 42.28 854.86 42.50 C 857.60 42.70 860.00 44.18 862.46 45.29 C 865.83 46.97 869.73 47.16 873.10 48.86 C 876.34 50.47 878.92 53.13 882.17 54.74 C 885.22 56.28 888.43 57.67 890.98 60.02 C 894.97 63.41 896.89 68.70 901.40 71.58 C 906.75 75.30 911.04 80.54 913.04 86.80 C 914.19 92.19 920.14 93.76 923.22 97.78 C 928.14 104.03 932.53 111.02 934.29 118.88 C 935.30 122.85 936.37 126.81 937.15 130.84 C 941.50 132.59 946.01 134.26 949.60 137.39 C 956.10 142.99 961.85 149.59 965.61 157.36 C 972.75 170.01 976.35 184.21 979.43 198.29 C 980.31 202.92 980.83 207.64 982.13 212.19 C 982.43 213.91 984.19 214.62 985.50 215.47 C 991.83 218.98 998.53 221.76 1004.97 225.04 C 1024.62 234.62 1042.07 248.17 1057.94 263.08 C 1074.11 278.62 1088.77 295.63 1103.45 312.56 C 1128.96 342.42 1156.24 370.91 1179.00 403.00 C 1183.45 409.10 1186.82 415.88 1190.69 422.35 C 1193.62 427.27 1195.02 432.87 1196.97 438.21 C 1198.18 441.69 1199.66 445.18 1199.74 448.94 C 1199.91 454.59 1200.61 460.26 1200.15 465.92 C 1199.39 470.69 1197.26 475.09 1195.75 479.65 C 1192.94 488.42 1186.19 495.08 1182.31 503.32 C 1179.95 507.42 1178.03 512.79 1180.85 517.17 C 1187.63 528.84 1193.54 542.87 1189.57 556.50 C 1186.97 566.07 1177.69 572.54 1168.03 573.27 C 1160.12 574.65 1152.64 571.13 1144.91 570.38 C 1139.69 569.63 1135.08 574.19 1134.31 579.11 C 1133.49 583.51 1133.65 588.07 1132.29 592.38 C 1130.04 600.17 1123.63 606.79 1115.64 608.66 C 1106.02 611.03 1095.87 607.71 1087.84 602.37 C 1085.59 599.55 1083.11 596.92 1080.32 594.65 C 1074.86 590.22 1072.05 583.60 1067.84 578.13 C 1063.94 573.07 1061.91 566.96 1060.37 560.85 C 1064.27 562.37 1068.24 563.77 1072.33 564.77 C 1068.67 561.35 1063.47 559.33 1061.29 554.56 C 1057.00 546.12 1059.03 536.23 1055.90 527.45 C 1059.78 521.72 1065.91 517.29 1072.96 516.79 C 1084.28 515.53 1094.78 521.35 1103.35 528.14 C 1104.03 528.66 1104.72 529.18 1105.42 529.71 C 1104.44 531.55 1103.44 533.37 1102.45 535.20 C 1103.79 537.45 1105.35 539.66 1107.67 541.00 C 1115.10 545.25 1118.44 553.73 1125.12 558.88 C 1130.38 562.96 1136.06 569.06 1143.40 567.38 C 1137.36 560.82 1130.28 555.32 1124.34 548.66 C 1113.46 536.63 1103.70 522.69 1100.63 506.46 C 1098.55 497.68 1102.07 488.79 1100.86 479.96 C 1100.44 477.02 1099.03 474.38 1097.89 471.69 C 1097.12 458.93 1092.88 446.55 1086.43 435.57 C 1075.11 415.98 1059.32 399.48 1043.05 383.95 C 1026.12 368.03 1007.64 353.90 989.21 339.77 C 979.99 332.52 970.63 325.40 962.23 317.19 C 961.56 314.37 960.74 311.49 958.86 309.23 C 948.60 297.29 941.40 283.20 933.20 269.86 C 926.58 258.81 922.26 246.63 917.47 234.74 C 915.28 228.69 913.59 222.36 909.84 217.03 C 909.02 213.58 908.66 210.00 907.37 206.68 C 905.95 205.52 904.24 204.83 902.62 204.06 C 904.12 203.65 905.63 203.26 907.15 202.88 C 907.13 199.81 908.10 196.37 906.58 193.55 C 903.54 190.94 899.65 189.68 896.22 187.73 C 890.81 184.97 886.44 180.69 881.94 176.71 C 881.59 177.02 880.89 177.65 880.54 177.96 C 881.06 180.46 881.53 182.97 882.17 185.45 C 879.06 179.40 875.72 173.32 874.36 166.59 C 872.95 159.60 871.04 152.56 871.73 145.36 C 872.30 140.68 872.87 136.00 873.27 131.30 C 870.16 129.37 866.75 127.53 864.76 124.32 C 862.23 120.33 860.56 115.73 860.39 110.99 C 860.15 108.08 860.40 105.11 859.69 102.27 C 858.02 98.48 854.68 95.59 853.55 91.53 C 852.29 87.08 852.62 82.41 852.65 77.84 C 851.41 78.85 850.18 79.87 848.97 80.88 C 847.11 77.52 845.89 73.88 845.06 70.15 C 843.88 71.03 842.71 71.90 841.55 72.77 C 838.90 69.55 836.90 65.88 835.48 61.97 C 835.03 64.06 834.58 66.16 834.13 68.25 C 829.15 65.94 826.39 61.07 824.45 56.18 C 823.55 58.45 824.03 62.58 820.75 62.73 C 817.71 63.04 815.11 60.87 813.33 58.65 C 810.36 54.96 810.28 49.99 809.19 45.58 C 807.31 49.02 807.56 52.96 807.36 56.73 C 807.46 59.07 804.94 60.40 802.91 60.55 C 798.18 60.70 793.59 57.92 791.18 53.90 C 788.60 49.64 787.33 44.76 785.83 40.05 Z" />
<path fill="#9f9797" d=" M 781.67 43.97 C 783.06 42.67 784.44 41.35 785.83 40.05 C 787.33 44.76 788.60 49.64 791.18 53.90 C 793.59 57.92 798.18 60.70 802.91 60.55 C 804.94 60.40 807.46 59.07 807.36 56.73 C 807.56 52.96 807.31 49.02 809.19 45.58 C 810.28 49.99 810.36 54.96 813.33 58.65 C 815.11 60.87 817.71 63.04 820.75 62.73 C 824.03 62.58 823.55 58.45 824.45 56.18 C 826.39 61.07 829.15 65.94 834.13 68.25 C 834.58 66.16 835.03 64.06 835.48 61.97 C 836.90 65.88 838.90 69.55 841.55 72.77 C 842.71 71.90 843.88 71.03 845.06 70.15 C 845.89 73.88 847.11 77.52 848.97 80.88 C 850.18 79.87 851.41 78.85 852.65 77.84 C 852.62 82.41 852.29 87.08 853.55 91.53 C 854.68 95.59 858.02 98.48 859.69 102.27 C 860.40 105.11 860.15 108.08 860.39 110.99 C 860.56 115.73 862.23 120.33 864.76 124.32 C 866.75 127.53 870.16 129.37 873.27 131.30 C 872.87 136.00 872.30 140.68 871.73 145.36 C 864.05 137.55 859.36 126.85 858.64 115.93 C 858.29 110.79 853.98 107.12 852.95 102.15 C 850.51 89.34 838.63 79.90 826.16 77.83 C 822.46 77.17 819.65 74.54 816.89 72.21 C 813.58 73.61 810.03 75.49 806.34 74.48 C 800.74 73.25 797.07 68.54 793.37 64.57 C 790.65 61.61 787.38 59.14 785.12 55.78 C 782.94 52.22 782.47 47.98 781.67 43.97 Z" />
<path fill="#9f9797" d=" M 750.20 50.84 C 748.93 49.46 750.33 47.62 750.50 46.07 C 754.04 47.36 758.09 48.42 760.43 51.64 C 762.71 54.84 763.63 58.76 765.64 62.12 C 763.76 62.02 761.88 61.92 760.01 61.90 C 760.58 61.41 761.15 60.91 761.72 60.41 C 757.75 57.39 753.37 54.75 750.20 50.84 Z" />
<path fill="#1a1b1e" d=" M 741.09 69.65 C 748.32 70.22 753.89 64.82 760.01 61.90 C 761.88 61.92 763.76 62.02 765.64 62.12 C 769.90 66.44 774.68 71.39 781.17 71.61 C 786.37 72.22 789.82 67.56 793.37 64.57 C 797.07 68.54 800.74 73.25 806.34 74.48 C 810.03 75.49 813.58 73.61 816.89 72.21 C 819.65 74.54 822.46 77.17 826.16 77.83 C 838.63 79.90 850.51 89.34 852.95 102.15 C 853.98 107.12 858.29 110.79 858.64 115.93 C 859.36 126.85 864.05 137.55 871.73 145.36 C 871.04 152.56 872.95 159.60 874.36 166.59 C 875.72 173.32 879.06 179.40 882.17 185.45 C 886.93 193.41 893.83 200.64 902.62 204.06 C 904.24 204.83 905.95 205.52 907.37 206.68 C 908.66 210.00 909.02 213.58 909.84 217.03 C 911.93 228.78 915.71 240.14 919.64 251.38 C 928.48 276.21 942.53 299.49 962.23 317.19 C 970.63 325.40 979.99 332.52 989.21 339.77 C 1007.64 353.90 1026.12 368.03 1043.05 383.95 C 1059.32 399.48 1075.11 415.98 1086.43 435.57 C 1092.88 446.55 1097.12 458.93 1097.89 471.69 C 1097.86 477.24 1097.38 482.77 1096.49 488.25 C 1094.59 499.04 1097.07 510.31 1102.10 519.94 C 1103.44 522.60 1104.74 525.29 1105.97 528.03 C 1105.31 528.05 1104.01 528.11 1103.35 528.14 C 1094.78 521.35 1084.28 515.53 1072.96 516.79 C 1065.91 517.29 1059.78 521.72 1055.90 527.45 C 1052.18 532.85 1052.90 541.13 1046.28 544.34 C 1039.74 535.22 1031.03 527.18 1020.06 523.96 C 1010.98 520.84 1000.38 523.64 994.02 530.82 C 991.09 534.04 988.39 537.50 984.87 540.12 C 981.17 534.85 982.60 527.91 979.62 522.40 C 975.14 519.01 969.63 517.28 964.53 515.00 C 919.71 495.56 875.06 475.74 830.48 455.76 C 833.41 450.67 837.05 446.02 839.81 440.83 C 845.62 430.20 849.76 418.29 849.68 406.06 C 849.61 399.82 846.04 394.41 842.21 389.77 C 830.25 375.78 816.35 363.65 803.53 350.48 C 765.06 312.52 726.26 274.58 683.11 241.88 C 668.00 230.61 652.41 219.79 635.41 211.55 C 619.28 203.44 601.65 198.31 583.67 196.67 C 573.91 196.06 564.11 196.19 554.35 196.76 C 542.83 197.77 531.39 199.46 519.85 200.14 C 522.19 194.53 524.30 188.83 526.06 183.01 C 527.36 179.62 528.21 175.57 531.48 173.48 C 538.56 168.63 547.55 166.90 553.84 160.84 C 559.69 154.94 560.21 146.12 564.19 139.14 C 565.36 136.90 567.88 135.98 570.09 135.08 C 576.28 132.73 583.38 132.02 588.58 127.57 C 592.92 123.41 594.34 117.33 597.31 112.28 C 598.54 110.28 599.99 107.98 602.50 107.52 C 608.80 106.07 615.76 106.89 621.51 103.47 C 628.39 99.39 629.09 89.62 636.20 85.89 C 643.13 84.04 650.50 88.01 657.36 85.36 C 665.43 82.46 667.38 71.42 676.08 69.76 C 682.91 69.90 689.09 74.09 696.02 73.75 C 705.59 74.10 711.10 64.22 720.01 62.46 C 727.51 63.30 733.47 69.24 741.09 69.65 Z" />
<path fill="#9f9797" d=" M 908.87 137.85 C 910.11 134.44 912.63 131.21 916.25 130.17 C 919.01 129.37 921.70 130.85 924.27 131.70 C 921.70 134.71 919.02 137.71 917.33 141.32 C 913.91 148.52 910.45 155.88 909.44 163.87 C 908.44 169.03 909.11 174.70 906.23 179.34 C 905.22 172.61 905.78 165.78 905.60 159.01 C 905.44 151.84 906.35 144.59 908.87 137.85 Z" />
<path fill="#be9a99" d=" M 880.54 177.96 C 880.89 177.65 881.59 177.02 881.94 176.71 C 886.44 180.69 890.81 184.97 896.22 187.73 C 899.65 189.68 903.54 190.94 906.58 193.55 C 908.10 196.37 907.13 199.81 907.15 202.88 C 905.63 203.26 904.12 203.65 902.62 204.06 C 893.83 200.64 886.93 193.41 882.17 185.45 C 881.53 182.97 881.06 180.46 880.54 177.96 Z" />
<path fill="#fe8d87" d=" M 381.85 204.87 C 397.46 198.60 414.12 194.64 430.98 194.27 C 447.24 193.53 463.39 195.76 479.46 197.97 C 492.81 199.93 506.35 201.57 519.85 200.14 C 531.39 199.46 542.83 197.77 554.35 196.76 C 564.11 196.19 573.91 196.06 583.67 196.67 C 601.65 198.31 619.28 203.44 635.41 211.55 C 652.41 219.79 668.00 230.61 683.11 241.88 C 726.26 274.58 765.06 312.52 803.53 350.48 C 816.35 363.65 830.25 375.78 842.21 389.77 C 846.04 394.41 849.61 399.82 849.68 406.06 C 849.76 418.29 845.62 430.20 839.81 440.83 C 837.05 446.02 833.41 450.67 830.48 455.76 C 807.29 445.18 783.93 434.96 760.83 424.19 C 777.19 423.91 793.47 425.71 809.70 427.63 C 818.51 428.87 826.88 424.78 835.67 424.87 C 834.97 424.14 834.29 423.43 833.62 422.71 C 835.50 420.07 837.39 417.29 837.88 414.01 C 837.87 412.75 837.84 411.50 837.83 410.24 C 839.16 410.03 840.50 409.81 841.85 409.60 C 840.42 409.12 839.01 408.66 837.63 408.09 C 838.13 406.47 838.71 404.85 838.92 403.16 C 838.11 400.42 835.25 399.11 832.86 398.01 C 824.44 394.59 815.29 393.74 806.53 391.54 C 788.01 387.30 770.51 379.80 752.84 373.01 C 742.41 369.09 732.09 364.85 721.50 361.36 C 704.11 354.54 686.33 348.78 668.44 343.41 C 662.36 341.37 656.24 339.24 649.78 338.85 C 648.61 334.20 647.38 329.40 644.51 325.47 C 640.59 320.07 635.22 315.92 629.61 312.41 C 620.34 306.65 610.40 301.58 599.57 299.60 C 593.99 298.31 588.26 299.07 582.62 299.21 C 578.83 298.97 575.03 299.38 571.47 300.71 C 576.50 304.67 582.20 307.73 586.99 312.01 C 591.58 315.93 595.25 320.88 597.77 326.36 C 592.21 327.62 586.59 326.11 581.03 325.67 C 555.44 322.83 529.68 323.86 503.99 323.72 C 481.64 323.78 459.29 322.97 436.95 323.86 C 420.36 325.28 403.77 326.94 387.42 330.19 C 383.11 331.06 378.79 332.02 374.38 332.10 C 375.68 329.58 377.40 327.16 380.11 326.01 C 389.98 321.28 400.12 317.07 410.39 313.27 C 414.69 311.65 419.12 310.26 423.13 307.96 C 426.77 305.93 430.11 303.18 434.24 302.17 C 439.48 300.88 445.03 300.90 450.08 298.81 C 456.88 295.93 464.19 294.57 471.11 292.01 C 476.40 290.30 482.08 289.16 486.50 285.54 C 482.54 285.86 478.68 286.81 474.86 287.86 C 465.66 290.37 456.16 291.50 446.94 293.93 C 442.24 295.21 437.36 295.40 432.54 295.73 C 425.95 296.03 420.80 300.95 414.31 301.72 C 401.12 303.72 388.00 306.68 375.57 311.59 C 369.91 313.65 366.06 318.59 360.72 321.19 C 358.19 322.40 356.03 324.21 353.73 325.78 C 350.98 327.69 347.35 327.13 344.46 328.65 C 341.68 330.81 339.72 333.83 336.96 336.02 C 334.03 338.45 330.32 339.58 326.76 340.76 C 328.44 341.02 330.12 341.29 331.80 341.58 C 330.68 342.82 329.78 344.43 328.14 345.06 C 316.14 349.14 303.80 352.21 291.81 356.32 C 281.96 360.66 271.45 363.17 261.58 367.45 C 238.72 375.50 216.22 384.82 192.59 390.44 C 181.90 392.97 170.47 393.33 160.53 398.42 C 156.07 400.25 155.02 406.92 158.87 409.89 C 158.13 411.00 157.39 412.11 156.66 413.23 C 158.42 417.48 160.94 421.67 165.15 423.88 C 175.07 429.77 187.05 428.55 198.01 427.22 C 216.91 424.82 235.96 423.91 255.00 424.32 C 272.33 423.74 289.58 425.88 306.89 426.16 C 300.11 432.03 294.26 438.95 289.56 446.58 C 287.55 449.81 285.16 452.88 282.02 455.11 C 278.38 456.90 274.95 459.16 272.17 462.14 C 267.96 466.60 263.30 470.77 260.27 476.18 C 258.27 479.73 255.98 483.33 252.24 485.27 C 242.26 490.75 233.80 498.64 226.53 507.32 C 203.75 492.87 181.27 476.94 164.42 455.58 C 153.44 441.36 144.71 424.28 144.66 405.96 C 144.79 396.75 151.61 389.79 157.58 383.58 C 166.16 374.82 175.27 366.60 184.23 358.23 C 229.74 315.89 275.11 272.99 325.90 236.93 C 343.57 224.67 361.82 212.91 381.85 204.87 Z" />
<path fill="#9f9797" d=" M 909.84 217.03 C 913.59 222.36 915.28 228.69 917.47 234.74 C 922.26 246.63 926.58 258.81 933.20 269.86 C 941.40 283.20 948.60 297.29 958.86 309.23 C 960.74 311.49 961.56 314.37 962.23 317.19 C 942.53 299.49 928.48 276.21 919.64 251.38 C 915.71 240.14 911.93 228.78 909.84 217.03 Z" />
<path fill="#f8695e" d=" M 662.05 231.83 C 667.41 234.17 671.43 238.54 675.94 242.12 C 678.98 244.97 682.21 247.64 685.01 250.73 C 686.67 253.32 688.04 256.11 690.14 258.42 C 688.91 258.26 687.70 258.12 686.50 257.98 C 687.00 259.64 687.49 261.29 687.99 262.95 C 685.01 262.84 682.02 262.37 679.06 262.72 C 676.60 263.55 674.64 265.59 672.02 265.97 C 666.63 266.56 661.29 265.36 655.94 264.85 C 650.49 264.25 645.18 266.12 639.76 266.33 C 628.76 266.84 617.50 267.56 606.76 264.62 C 611.78 259.57 619.33 259.16 625.95 257.94 C 631.18 256.91 636.50 257.89 641.77 257.57 C 645.75 256.56 649.00 253.60 653.12 252.99 C 657.21 252.39 661.36 252.89 665.48 252.84 C 665.83 251.25 666.19 249.66 666.55 248.08 C 668.55 247.93 670.54 247.81 672.55 247.72 C 670.12 241.75 666.42 236.52 662.05 231.83 Z" />
<path fill="#f8695e" d=" M 474.86 287.86 C 478.68 286.81 482.54 285.86 486.50 285.54 C 482.08 289.16 476.40 290.30 471.11 292.01 C 464.19 294.57 456.88 295.93 450.08 298.81 C 445.03 300.90 439.48 300.88 434.24 302.17 C 430.11 303.18 426.77 305.93 423.13 307.96 C 419.12 310.26 414.69 311.65 410.39 313.27 C 400.12 317.07 389.98 321.28 380.11 326.01 C 377.40 327.16 375.68 329.58 374.38 332.10 C 378.79 332.02 383.11 331.06 387.42 330.19 C 403.77 326.94 420.36 325.28 436.95 323.86 C 459.29 322.97 481.64 323.78 503.99 323.72 C 529.68 323.86 555.44 322.83 581.03 325.67 C 586.59 326.11 592.21 327.62 597.77 326.36 C 598.06 329.60 597.90 332.85 597.84 336.09 C 594.22 336.28 590.58 336.21 586.99 335.77 C 574.40 334.31 561.74 333.68 549.08 333.43 C 535.08 332.25 521.02 332.86 506.99 332.71 C 491.33 332.56 475.66 332.64 460.00 332.65 C 433.59 333.73 407.06 335.63 381.24 341.52 C 377.58 343.25 375.25 346.84 371.67 348.66 C 368.54 349.61 365.21 349.28 361.99 349.34 C 356.66 349.21 351.34 349.76 346.01 349.88 C 341.86 349.99 337.71 349.49 333.56 349.77 C 329.62 352.22 325.85 355.17 321.21 356.16 C 306.73 359.79 292.87 365.48 278.46 369.37 C 270.83 371.41 263.61 374.66 256.11 377.10 C 239.07 383.07 222.09 389.26 204.85 394.69 C 197.77 396.92 190.39 397.95 183.03 398.84 C 176.76 399.53 170.94 402.04 165.05 404.13 C 164.73 406.79 163.45 409.75 164.73 412.32 C 168.96 418.05 176.02 421.32 183.06 421.64 C 189.36 421.89 195.57 420.49 201.83 419.90 C 223.16 417.97 244.58 417.35 265.97 416.34 C 282.77 416.06 299.61 416.30 316.34 418.00 C 313.09 420.60 310.02 423.43 306.89 426.16 C 289.58 425.88 272.33 423.74 255.00 424.32 C 235.96 423.91 216.91 424.82 198.01 427.22 C 187.05 428.55 175.07 429.77 165.15 423.88 C 160.94 421.67 158.42 417.48 156.66 413.23 C 157.39 412.11 158.13 411.00 158.87 409.89 C 155.02 406.92 156.07 400.25 160.53 398.42 C 170.47 393.33 181.90 392.97 192.59 390.44 C 216.22 384.82 238.72 375.50 261.58 367.45 C 271.45 363.17 281.96 360.66 291.81 356.32 C 303.80 352.21 316.14 349.14 328.14 345.06 C 329.78 344.43 330.68 342.82 331.80 341.58 C 330.12 341.29 328.44 341.02 326.76 340.76 C 330.32 339.58 334.03 338.45 336.96 336.02 C 339.72 333.83 341.68 330.81 344.46 328.65 C 347.35 327.13 350.98 327.69 353.73 325.78 C 356.03 324.21 358.19 322.40 360.72 321.19 C 366.06 318.59 369.91 313.65 375.57 311.59 C 388.00 306.68 401.12 303.72 414.31 301.72 C 420.80 300.95 425.95 296.03 432.54 295.73 C 437.36 295.40 442.24 295.21 446.94 293.93 C 456.16 291.50 465.66 290.37 474.86 287.86 Z" />
<path fill="#e55630" d=" M 571.47 300.71 C 575.03 299.38 578.83 298.97 582.62 299.21 C 586.98 302.07 591.55 304.61 596.29 306.79 C 603.33 310.01 609.70 315.11 617.62 316.00 C 616.30 312.69 614.09 309.77 610.99 307.96 C 607.21 305.14 601.95 303.99 599.57 299.60 C 610.40 301.58 620.34 306.65 629.61 312.41 C 635.22 315.92 640.59 320.07 644.51 325.47 C 647.38 329.40 648.61 334.20 649.78 338.85 C 649.95 339.59 650.31 341.05 650.48 341.79 C 656.72 343.61 662.28 346.90 667.75 350.30 C 677.90 354.12 688.46 356.78 698.66 360.51 C 708.42 363.86 718.03 367.69 728.07 370.16 C 740.86 374.04 752.87 380.06 765.43 384.60 C 779.75 389.68 793.98 395.34 808.98 398.19 C 816.01 399.46 823.23 399.57 830.23 401.06 C 833.92 401.71 835.37 405.60 837.63 408.09 C 839.01 408.66 840.42 409.12 841.85 409.60 C 840.50 409.81 839.16 410.03 837.83 410.24 C 837.84 411.50 837.87 412.75 837.88 414.01 C 830.88 417.28 823.93 421.44 816.02 421.79 C 807.42 422.16 799.01 419.85 790.44 419.61 C 776.20 419.31 762.02 416.67 747.76 418.14 C 738.90 414.40 730.15 410.41 721.71 405.79 C 730.14 405.37 738.54 406.44 746.94 407.07 C 762.33 408.28 777.64 410.34 793.04 411.50 C 799.29 411.79 805.71 412.42 811.81 410.63 C 810.18 409.78 808.55 408.96 806.90 408.20 C 799.38 404.12 791.01 402.09 783.05 399.10 C 739.30 384.89 695.87 369.56 651.45 357.50 C 647.57 356.63 643.59 354.97 639.58 355.80 C 635.13 357.12 630.95 359.19 626.49 360.49 C 624.95 360.43 623.42 360.38 621.89 360.27 C 616.24 358.30 610.28 357.54 604.33 357.30 C 602.22 356.94 600.14 356.47 598.06 356.02 C 594.86 354.70 591.41 353.45 589.07 350.78 C 589.23 348.86 589.81 347.01 590.33 345.17 C 577.26 343.63 564.14 342.75 551.02 341.86 C 537.35 341.46 523.67 341.61 510.01 341.02 C 488.66 341.31 467.29 340.80 445.96 342.05 C 426.61 343.52 407.28 345.73 388.26 349.61 C 385.35 347.46 382.98 344.69 381.24 341.52 C 407.06 335.63 433.59 333.73 460.00 332.65 C 475.66 332.64 491.33 332.56 506.99 332.71 C 521.02 332.86 535.08 332.25 549.08 333.43 C 561.74 333.68 574.40 334.31 586.99 335.77 C 590.58 336.21 594.22 336.28 597.84 336.09 C 597.90 332.85 598.06 329.60 597.77 326.36 C 595.25 320.88 591.58 315.93 586.99 312.01 C 582.20 307.73 576.50 304.67 571.47 300.71 Z" />
<path fill="#f8695e" d=" M 582.62 299.21 C 588.26 299.07 593.99 298.31 599.57 299.60 C 601.95 303.99 607.21 305.14 610.99 307.96 C 614.09 309.77 616.30 312.69 617.62 316.00 C 609.70 315.11 603.33 310.01 596.29 306.79 C 591.55 304.61 586.98 302.07 582.62 299.21 Z" />
<path fill="#f8695e" d=" M 329.04 330.10 C 331.62 327.16 335.08 324.92 339.14 325.29 C 336.35 327.91 332.74 329.33 329.04 330.10 Z" />
<path fill="#f8695e" d=" M 649.78 338.85 C 656.24 339.24 662.36 341.37 668.44 343.41 C 686.33 348.78 704.11 354.54 721.50 361.36 C 732.09 364.85 742.41 369.09 752.84 373.01 C 770.51 379.80 788.01 387.30 806.53 391.54 C 815.29 393.74 824.44 394.59 832.86 398.01 C 835.25 399.11 838.11 400.42 838.92 403.16 C 838.71 404.85 838.13 406.47 837.63 408.09 C 835.37 405.60 833.92 401.71 830.23 401.06 C 823.23 399.57 816.01 399.46 808.98 398.19 C 793.98 395.34 779.75 389.68 765.43 384.60 C 752.87 380.06 740.86 374.04 728.07 370.16 C 718.03 367.69 708.42 363.86 698.66 360.51 C 688.46 356.78 677.90 354.12 667.75 350.30 C 662.28 346.90 656.72 343.61 650.48 341.79 C 650.31 341.05 649.95 339.59 649.78 338.85 Z" />
<path fill="#ac5e59" d=" M 371.67 348.66 C 375.25 346.84 377.58 343.25 381.24 341.52 C 382.98 344.69 385.35 347.46 388.26 349.61 C 388.31 350.61 388.36 351.62 388.41 352.63 C 390.67 354.37 392.95 356.07 395.24 357.77 C 384.58 359.90 373.89 361.84 363.23 363.95 C 360.88 364.34 358.54 364.72 356.20 365.10 C 351.31 363.57 347.03 358.51 341.53 360.61 C 328.06 364.30 314.87 368.93 301.34 372.40 C 286.57 376.97 271.80 381.57 257.08 386.32 C 248.36 388.96 239.89 392.44 230.92 394.17 C 233.41 392.92 235.85 391.55 238.48 390.59 C 264.61 381.96 290.68 373.12 317.07 365.31 C 325.23 362.47 333.94 361.27 341.69 357.32 C 339.07 354.70 336.36 352.18 333.56 349.77 C 337.71 349.49 341.86 349.99 346.01 349.88 C 351.34 349.76 356.66 349.21 361.99 349.34 C 365.21 349.28 368.54 349.61 371.67 348.66 Z" />
<path fill="#fe8d87" d=" M 445.96 342.05 C 467.29 340.80 488.66 341.31 510.01 341.02 C 523.67 341.61 537.35 341.46 551.02 341.86 C 564.14 342.75 577.26 343.63 590.33 345.17 C 589.81 347.01 589.23 348.86 589.07 350.78 C 591.41 353.45 594.86 354.70 598.06 356.02 C 587.40 355.06 576.76 353.83 566.06 353.32 C 553.74 352.07 541.34 352.86 529.00 351.86 C 489.76 351.93 450.35 350.73 411.33 355.72 C 405.93 356.13 400.54 356.68 395.24 357.77 C 392.95 356.07 390.67 354.37 388.41 352.63 C 388.36 351.62 388.31 350.61 388.26 349.61 C 407.28 345.73 426.61 343.52 445.96 342.05 Z" />
<path fill="#e55630" d=" M 321.21 356.16 C 325.85 355.17 329.62 352.22 333.56 349.77 C 336.36 352.18 339.07 354.70 341.69 357.32 C 333.94 361.27 325.23 362.47 317.07 365.31 C 290.68 373.12 264.61 381.96 238.48 390.59 C 235.85 391.55 233.41 392.92 230.92 394.17 C 220.22 397.75 209.47 401.16 198.79 404.79 C 196.10 405.70 193.47 406.80 190.95 408.12 C 189.39 408.88 187.93 409.80 186.48 410.75 C 187.01 410.89 188.08 411.16 188.61 411.30 C 194.20 413.08 200.14 412.74 205.92 412.41 C 212.69 411.89 219.48 411.27 226.14 409.85 C 226.56 409.80 227.40 409.71 227.82 409.66 C 236.91 409.90 245.95 408.77 255.00 408.03 C 278.02 406.80 301.11 405.80 324.15 407.19 C 323.18 409.44 322.51 411.81 321.89 414.19 C 319.96 415.34 318.12 416.64 316.34 418.00 C 299.61 416.30 282.77 416.06 265.97 416.34 C 244.58 417.35 223.16 417.97 201.83 419.90 C 195.57 420.49 189.36 421.89 183.06 421.64 C 176.02 421.32 168.96 418.05 164.73 412.32 C 163.45 409.75 164.73 406.79 165.05 404.13 C 170.94 402.04 176.76 399.53 183.03 398.84 C 190.39 397.95 197.77 396.92 204.85 394.69 C 222.09 389.26 239.07 383.07 256.11 377.10 C 263.61 374.66 270.83 371.41 278.46 369.37 C 292.87 365.48 306.73 359.79 321.21 356.16 Z" />
<path fill="#1a1b1e" d=" M 411.33 355.72 C 450.35 350.73 489.76 351.93 529.00 351.86 C 541.34 352.86 553.74 352.07 566.06 353.32 C 576.76 353.83 587.40 355.06 598.06 356.02 C 600.14 356.47 602.22 356.94 604.33 357.30 C 599.95 358.82 595.39 360.67 592.40 364.39 C 585.18 373.39 585.93 388.42 595.38 395.61 C 601.38 400.74 609.56 402.86 614.88 408.83 C 587.23 410.65 559.60 413.05 531.89 413.67 C 503.25 415.07 474.58 413.66 445.97 412.18 C 427.14 410.70 408.24 410.05 389.48 407.73 L 388.88 407.64 C 386.70 407.34 384.49 407.33 382.31 407.18 C 384.81 401.56 387.76 396.09 389.30 390.10 C 390.89 384.81 391.93 379.01 395.75 374.78 C 401.27 368.72 406.86 362.63 411.33 355.72 Z" />
<path fill="#be9a99" d=" M 639.58 355.80 C 643.59 354.97 647.57 356.63 651.45 357.50 C 695.87 369.56 739.30 384.89 783.05 399.10 C 791.01 402.09 799.38 404.12 806.90 408.20 C 788.02 403.50 769.52 397.43 750.80 392.13 C 709.76 380.13 668.50 368.62 626.49 360.49 C 630.95 359.19 635.13 357.12 639.58 355.80 Z" />
<path fill="#9f9797" d=" M 395.24 357.77 C 400.54 356.68 405.93 356.13 411.33 355.72 C 406.86 362.63 401.27 368.72 395.75 374.78 C 391.93 379.01 390.89 384.81 389.30 390.10 C 387.76 396.09 384.81 401.56 382.31 407.18 C 384.49 407.33 386.70 407.34 388.88 407.64 C 386.40 407.72 383.80 407.56 381.44 408.48 C 378.78 410.69 377.42 414.00 375.52 416.82 C 371.36 422.47 366.48 427.57 361.20 432.19 C 359.21 433.96 357.32 435.89 355.82 438.11 C 355.08 437.35 354.34 436.60 353.60 435.85 C 356.78 427.63 360.01 417.97 355.79 409.53 L 355.53 408.77 C 354.60 409.10 353.67 409.43 352.75 409.77 C 352.43 413.55 352.10 417.32 351.79 421.10 C 350.00 417.64 348.54 413.93 346.07 410.89 C 344.54 408.90 341.77 409.35 339.60 409.53 C 333.55 410.40 327.62 412.07 321.89 414.19 C 322.51 411.81 323.18 409.44 324.15 407.19 C 324.66 406.18 325.21 405.20 325.77 404.23 C 333.00 391.00 342.93 378.99 355.73 370.84 C 358.66 369.06 361.48 366.97 363.23 363.95 C 373.89 361.84 384.58 359.90 395.24 357.77 Z" />
<path fill="#c7811c" d=" M 592.40 364.39 C 595.39 360.67 599.95 358.82 604.33 357.30 C 610.28 357.54 616.24 358.30 621.89 360.27 C 640.54 369.40 659.74 377.35 678.33 386.60 C 669.71 385.63 659.95 387.08 653.94 393.93 C 645.52 403.51 645.51 418.51 652.21 429.06 C 640.37 423.47 629.62 415.88 617.99 409.97 C 616.96 409.56 615.92 409.17 614.88 408.83 C 609.56 402.86 601.38 400.74 595.38 395.61 C 585.93 388.42 585.18 373.39 592.40 364.39 Z" />
<path fill="#be9a99" d=" M 341.53 360.61 C 347.03 358.51 351.31 363.57 356.20 365.10 C 308.28 375.18 261.25 388.95 214.11 402.08 C 206.41 404.19 198.76 406.45 190.95 408.12 C 193.47 406.80 196.10 405.70 198.79 404.79 C 209.47 401.16 220.22 397.75 230.92 394.17 C 239.89 392.44 248.36 388.96 257.08 386.32 C 271.80 381.57 286.57 376.97 301.34 372.40 C 314.87 368.93 328.06 364.30 341.53 360.61 Z" />
<path fill="#1a1b1e" d=" M 621.89 360.27 C 623.42 360.38 624.95 360.43 626.49 360.49 C 668.50 368.62 709.76 380.13 750.80 392.13 C 769.52 397.43 788.02 403.50 806.90 408.20 C 808.55 408.96 810.18 409.78 811.81 410.63 C 805.71 412.42 799.29 411.79 793.04 411.50 C 777.64 410.34 762.33 408.28 746.94 407.07 C 738.54 406.44 730.14 405.37 721.71 405.79 C 715.90 404.17 710.63 401.19 705.14 398.77 C 696.19 394.75 687.39 390.39 678.33 386.60 C 659.74 377.35 640.54 369.40 621.89 360.27 Z" />
<path fill="#1a1b1e" d=" M 356.20 365.10 C 358.54 364.72 360.88 364.34 363.23 363.95 C 361.48 366.97 358.66 369.06 355.73 370.84 C 342.93 378.99 333.00 391.00 325.77 404.23 C 293.06 404.33 260.29 405.53 227.82 409.66 C 227.40 409.71 226.56 409.80 226.14 409.85 C 213.64 410.55 201.13 412.45 188.61 411.30 C 188.08 411.16 187.01 410.89 186.48 410.75 C 187.93 409.80 189.39 408.88 190.95 408.12 C 198.76 406.45 206.41 404.19 214.11 402.08 C 261.25 388.95 308.28 375.18 356.20 365.10 Z" />
<path fill="#d7d7d7" d=" M 653.94 393.93 C 659.95 387.08 669.71 385.63 678.33 386.60 C 687.39 390.39 696.19 394.75 705.14 398.77 C 710.63 401.19 715.90 404.17 721.71 405.79 C 730.15 410.41 738.90 414.40 747.76 418.14 C 752.11 420.16 756.38 422.38 760.83 424.19 C 783.93 434.96 807.29 445.18 830.48 455.76 C 875.06 475.74 919.71 495.56 964.53 515.00 C 955.62 515.12 946.53 513.31 937.79 515.83 C 936.54 516.11 935.32 516.45 934.11 516.83 C 929.00 518.13 923.76 519.65 919.64 523.09 C 917.42 525.29 915.82 527.99 914.42 530.75 C 907.06 547.09 905.99 566.02 910.87 583.23 C 911.33 585.33 911.70 587.47 912.05 589.61 C 891.66 575.20 870.39 562.11 849.38 548.66 C 824.68 533.25 799.97 517.85 774.96 502.97 C 759.79 493.36 744.25 484.35 728.89 475.07 C 714.55 466.86 700.62 457.98 686.27 449.82 C 684.53 448.78 682.81 447.72 681.09 446.67 C 671.92 441.02 662.34 436.05 653.48 429.91 C 653.16 429.70 652.53 429.27 652.21 429.06 C 645.51 418.51 645.52 403.51 653.94 393.93 Z" />
<path fill="#be9a99" d=" M 227.82 409.66 C 260.29 405.53 293.06 404.33 325.77 404.23 C 325.21 405.20 324.66 406.18 324.15 407.19 C 301.11 405.80 278.02 406.80 255.00 408.03 C 245.95 408.77 236.91 409.90 227.82 409.66 Z" />
<path fill="#ac5e59" d=" M 381.44 408.48 C 383.80 407.56 386.40 407.72 388.88 407.64 L 389.48 407.73 C 394.02 408.70 398.71 409.75 402.53 412.55 C 397.50 412.46 392.33 412.03 387.43 413.48 C 383.48 414.65 379.57 416.01 375.52 416.82 C 377.42 414.00 378.78 410.69 381.44 408.48 Z" />
<path fill="#fe8d87" d=" M 389.48 407.73 C 408.24 410.05 427.14 410.70 445.97 412.18 C 474.58 413.66 503.25 415.07 531.89 413.67 C 559.60 413.05 587.23 410.65 614.88 408.83 C 615.92 409.17 616.96 409.56 617.99 409.97 C 609.37 409.52 600.71 410.85 592.49 413.40 C 586.26 415.31 579.68 414.87 573.27 415.33 C 550.55 416.90 527.79 418.09 505.01 417.76 C 470.78 418.28 436.59 415.76 402.53 412.55 C 398.71 409.75 394.02 408.70 389.48 407.73 Z" />
<path fill="#be9a99" d=" M 339.60 409.53 C 341.77 409.35 344.54 408.90 346.07 410.89 C 348.54 413.93 350.00 417.64 351.79 421.10 C 352.10 417.32 352.43 413.55 352.75 409.77 C 353.67 409.43 354.60 409.10 355.53 408.77 L 355.79 409.53 C 354.87 416.81 354.68 424.27 352.40 431.31 C 349.92 439.13 345.89 446.34 343.24 454.09 C 347.97 448.82 351.00 442.36 353.60 435.85 C 354.34 436.60 355.08 437.35 355.82 438.11 C 355.11 440.39 354.56 442.71 353.84 444.99 C 350.57 451.66 347.00 458.21 343.18 464.58 C 339.10 469.95 334.86 475.32 329.49 479.47 C 326.96 481.55 323.97 483.36 322.49 486.40 C 320.64 490.17 319.50 494.39 316.53 497.49 C 313.60 500.63 311.06 504.09 308.40 507.45 C 304.85 511.97 298.35 513.43 295.85 518.87 C 293.56 523.59 291.64 528.54 288.53 532.82 C 281.63 532.30 274.87 535.29 269.67 539.65 C 266.33 543.88 266.65 549.96 263.27 554.20 C 262.06 555.24 260.57 555.87 259.18 556.63 C 258.78 552.82 258.50 548.94 259.34 545.18 C 260.13 540.87 262.03 536.26 259.94 532.01 C 257.29 526.17 254.49 519.61 248.53 516.45 C 243.20 513.25 236.83 513.10 230.84 512.43 C 239.59 509.58 248.60 513.64 257.42 511.63 C 262.09 510.71 268.05 510.61 271.18 514.85 C 272.77 518.85 272.08 523.37 273.68 527.38 C 276.06 528.42 278.38 526.54 280.32 525.36 C 289.25 519.18 293.53 506.69 289.81 496.41 C 288.31 491.98 287.21 486.73 283.01 484.00 C 277.69 480.31 271.00 480.14 264.80 479.49 C 269.68 478.08 274.72 477.40 279.70 476.44 C 284.91 475.48 289.22 472.25 293.83 469.86 C 298.25 467.53 303.41 468.05 308.23 467.78 C 307.84 462.93 306.57 457.59 302.11 454.87 C 296.13 450.30 288.40 453.14 282.02 455.11 C 285.16 452.88 287.55 449.81 289.56 446.58 C 294.26 438.95 300.11 432.03 306.89 426.16 C 310.02 423.43 313.09 420.60 316.34 418.00 C 318.12 416.64 319.96 415.34 321.89 414.19 C 327.62 412.07 333.55 410.40 339.60 409.53 Z" />
<path fill="#be9a99" d=" M 188.61 411.30 C 201.13 412.45 213.64 410.55 226.14 409.85 C 219.48 411.27 212.69 411.89 205.92 412.41 C 200.14 412.74 194.20 413.08 188.61 411.30 Z" />
<path fill="#b3b3b3" d=" M 352.40 431.31 C 354.68 424.27 354.87 416.81 355.79 409.53 C 360.01 417.97 356.78 427.63 353.60 435.85 C 351.00 442.36 347.97 448.82 343.24 454.09 C 345.89 446.34 349.92 439.13 352.40 431.31 Z" />
<path fill="#e55630" d=" M 592.49 413.40 C 600.71 410.85 609.37 409.52 617.99 409.97 C 629.62 415.88 640.37 423.47 652.21 429.06 C 652.53 429.27 653.16 429.70 653.48 429.91 C 651.32 430.32 649.15 430.72 647.00 431.14 C 648.52 437.42 650.47 443.61 651.55 450.00 C 650.15 451.35 648.93 453.37 646.76 453.39 C 641.47 453.84 636.08 453.90 631.03 455.77 C 625.55 457.81 619.64 458.00 613.89 457.30 C 611.35 450.31 608.34 443.50 605.05 436.84 C 603.21 433.15 601.01 429.67 598.75 426.24 C 584.11 426.55 569.60 428.86 554.96 429.39 C 545.52 430.16 536.05 430.28 526.58 430.58 C 515.41 431.43 504.20 431.17 493.00 431.17 C 456.92 429.70 420.91 426.70 385.00 422.91 C 382.68 422.76 379.94 422.29 378.13 424.14 C 372.70 429.05 367.89 434.60 362.87 439.91 C 360.46 442.51 357.12 443.86 353.84 444.99 C 354.56 442.71 355.11 440.39 355.82 438.11 C 357.32 435.89 359.21 433.96 361.20 432.19 C 366.48 427.57 371.36 422.47 375.52 416.82 C 379.57 416.01 383.48 414.65 387.43 413.48 C 392.33 412.03 397.50 412.46 402.53 412.55 C 436.59 415.76 470.78 418.28 505.01 417.76 C 527.79 418.09 550.55 416.90 573.27 415.33 C 579.68 414.87 586.26 415.31 592.49 413.40 Z" />
<path fill="#f8695e" d=" M 816.02 421.79 C 823.93 421.44 830.88 417.28 837.88 414.01 C 837.39 417.29 835.50 420.07 833.62 422.71 C 834.29 423.43 834.97 424.14 835.67 424.87 C 826.88 424.78 818.51 428.87 809.70 427.63 C 793.47 425.71 777.19 423.91 760.83 424.19 C 756.38 422.38 752.11 420.16 747.76 418.14 C 762.02 416.67 776.20 419.31 790.44 419.61 C 799.01 419.85 807.42 422.16 816.02 421.79 Z" />
<path fill="#f8695e" d=" M 378.13 424.14 C 379.94 422.29 382.68 422.76 385.00 422.91 C 420.91 426.70 456.92 429.70 493.00 431.17 C 504.20 431.17 515.41 431.43 526.58 430.58 C 536.05 430.28 545.52 430.16 554.96 429.39 C 569.60 428.86 584.11 426.55 598.75 426.24 C 601.01 429.67 603.21 433.15 605.05 436.84 C 592.30 437.59 579.73 439.86 567.03 441.01 C 547.35 441.95 527.71 444.33 507.99 443.85 C 490.33 444.63 472.71 442.88 455.10 441.84 C 439.66 441.04 424.36 438.71 408.98 437.26 C 396.78 436.15 384.68 434.16 372.47 433.22 C 370.69 436.54 368.59 439.77 367.60 443.44 C 366.94 445.92 368.60 448.19 369.65 450.30 C 372.52 455.12 375.36 460.10 376.48 465.66 C 377.30 469.73 376.56 473.89 376.12 477.96 C 379.93 481.12 383.38 484.68 386.97 488.08 C 391.34 492.30 397.50 493.45 403.17 494.89 C 408.31 496.22 413.63 496.64 418.92 496.74 C 418.96 497.90 419.05 499.07 419.19 500.23 C 405.97 498.55 392.62 497.65 379.53 495.03 C 370.12 492.98 361.94 487.69 353.53 483.27 C 350.33 481.49 346.80 479.37 345.52 475.73 C 344.40 472.09 344.08 468.27 343.18 464.58 C 347.00 458.21 350.57 451.66 353.84 444.99 C 357.12 443.86 360.46 442.51 362.87 439.91 C 367.89 434.60 372.70 429.05 378.13 424.14 Z" />
<path fill="#b3b3b3" d=" M 306.12 431.10 C 308.58 428.97 311.64 427.78 314.75 426.98 C 315.13 428.03 315.55 429.08 316.02 430.11 C 313.20 435.08 309.31 439.30 305.56 443.57 C 302.20 447.51 296.59 447.60 291.83 447.94 C 294.91 441.12 300.43 435.79 306.12 431.10 Z" />
<path fill="#fe8d87" d=" M 647.00 431.14 C 649.15 430.72 651.32 430.32 653.48 429.91 C 662.34 436.05 671.92 441.02 681.09 446.67 C 674.79 448.83 668.48 451.24 663.01 455.14 C 659.75 457.49 656.18 459.36 652.37 460.64 C 652.08 457.09 651.93 453.54 651.55 450.00 C 650.47 443.61 648.52 437.42 647.00 431.14 Z" />
<path fill="#fe8d87" d=" M 372.47 433.22 C 384.68 434.16 396.78 436.15 408.98 437.26 C 424.36 438.71 439.66 441.04 455.10 441.84 C 472.71 442.88 490.33 444.63 507.99 443.85 C 527.71 444.33 547.35 441.95 567.03 441.01 C 579.73 439.86 592.30 437.59 605.05 436.84 C 608.34 443.50 611.35 450.31 613.89 457.30 C 615.53 461.48 616.75 465.96 619.47 469.62 C 620.73 471.34 623.00 471.60 624.96 471.80 C 629.64 472.11 634.38 471.76 638.98 470.80 C 645.10 469.53 650.63 466.49 656.44 464.30 C 660.63 462.73 664.68 460.80 668.49 458.44 C 674.12 454.99 680.34 452.70 686.27 449.82 C 700.62 457.98 714.55 466.86 728.89 475.07 C 744.25 484.35 759.79 493.36 774.96 502.97 C 769.34 507.15 763.30 510.71 757.29 514.28 C 724.70 533.52 690.02 549.14 654.14 561.12 C 608.21 575.98 560.15 584.57 511.86 585.54 C 433.84 587.67 355.60 570.71 284.81 538.03 C 286.09 536.32 287.33 534.58 288.53 532.82 C 291.64 528.54 293.56 523.59 295.85 518.87 C 298.35 513.43 304.85 511.97 308.40 507.45 C 311.06 504.09 313.60 500.63 316.53 497.49 C 319.50 494.39 320.64 490.17 322.49 486.40 C 323.97 483.36 326.96 481.55 329.49 479.47 C 334.86 475.32 339.10 469.95 343.18 464.58 C 344.08 468.27 344.40 472.09 345.52 475.73 C 346.80 479.37 350.33 481.49 353.53 483.27 C 361.94 487.69 370.12 492.98 379.53 495.03 C 392.62 497.65 405.97 498.55 419.19 500.23 C 419.05 499.07 418.96 497.90 418.92 496.74 C 413.63 496.64 408.31 496.22 403.17 494.89 C 397.50 493.45 391.34 492.30 386.97 488.08 C 383.38 484.68 379.93 481.12 376.12 477.96 C 376.56 473.89 377.30 469.73 376.48 465.66 C 375.36 460.10 372.52 455.12 369.65 450.30 C 368.60 448.19 366.94 445.92 367.60 443.44 C 368.59 439.77 370.69 436.54 372.47 433.22 Z" />
<path fill="#f8695e" d=" M 663.01 455.14 C 668.48 451.24 674.79 448.83 681.09 446.67 C 682.81 447.72 684.53 448.78 686.27 449.82 C 680.34 452.70 674.12 454.99 668.49 458.44 C 664.68 460.80 660.63 462.73 656.44 464.30 C 650.63 466.49 645.10 469.53 638.98 470.80 C 634.38 471.76 629.64 472.11 624.96 471.80 C 623.00 471.60 620.73 471.34 619.47 469.62 C 616.75 465.96 615.53 461.48 613.89 457.30 C 619.64 458.00 625.55 457.81 631.03 455.77 C 636.08 453.90 641.47 453.84 646.76 453.39 C 648.93 453.37 650.15 451.35 651.55 450.00 C 651.93 453.54 652.08 457.09 652.37 460.64 C 656.18 459.36 659.75 457.49 663.01 455.14 Z" />
<path fill="#b3b3b3" d=" M 282.02 455.11 C 288.40 453.14 296.13 450.30 302.11 454.87 C 306.57 457.59 307.84 462.93 308.23 467.78 C 303.41 468.05 298.25 467.53 293.83 469.86 C 289.22 472.25 284.91 475.48 279.70 476.44 C 274.72 477.40 269.68 478.08 264.80 479.49 C 271.00 480.14 277.69 480.31 283.01 484.00 C 287.21 486.73 288.31 491.98 289.81 496.41 C 293.53 506.69 289.25 519.18 280.32 525.36 C 278.38 526.54 276.06 528.42 273.68 527.38 C 272.08 523.37 272.77 518.85 271.18 514.85 C 268.05 510.61 262.09 510.71 257.42 511.63 C 248.60 513.64 239.59 509.58 230.84 512.43 C 236.83 513.10 243.20 513.25 248.53 516.45 C 254.49 519.61 257.29 526.17 259.94 532.01 C 262.03 536.26 260.13 540.87 259.34 545.18 C 258.50 548.94 258.78 552.82 259.18 556.63 C 260.57 555.87 262.06 555.24 263.27 554.20 C 266.65 549.96 266.33 543.88 269.67 539.65 C 274.87 535.29 281.63 532.30 288.53 532.82 C 287.33 534.58 286.09 536.32 284.81 538.03 C 279.33 545.77 271.88 551.70 264.46 557.47 C 259.73 560.75 258.88 566.95 254.88 570.85 C 251.53 574.17 249.11 578.48 244.96 580.94 C 240.17 583.72 237.03 588.94 231.50 590.49 C 227.92 591.92 223.58 591.91 220.61 594.61 C 217.30 598.98 216.63 604.63 214.60 609.61 C 213.31 613.39 210.40 616.34 207.15 618.55 C 203.97 617.19 200.59 616.36 197.11 616.52 C 200.70 615.83 204.16 614.60 207.40 612.92 C 200.67 612.38 194.27 614.75 188.15 617.22 C 187.69 619.13 187.21 621.04 186.71 622.96 C 185.23 624.45 183.85 626.09 183.11 628.10 C 180.59 634.40 178.55 640.88 176.07 647.21 C 168.57 648.10 160.92 648.98 153.52 646.90 C 154.45 648.57 154.89 651.05 157.07 651.54 C 162.40 653.29 168.05 651.77 173.52 652.41 C 168.48 659.97 158.84 660.77 150.65 661.84 C 149.66 666.09 148.74 670.54 146.13 674.15 C 141.57 680.26 134.03 683.37 129.69 689.71 C 125.74 695.01 122.98 701.53 117.29 705.29 C 111.25 709.03 103.87 709.92 98.00 713.98 C 95.07 716.10 92.07 718.12 89.00 720.02 C 86.30 721.43 85.07 724.30 84.02 726.99 C 82.10 732.56 78.43 737.51 73.32 740.53 C 71.89 739.47 70.47 738.41 69.04 737.37 C 71.60 736.71 74.15 735.98 76.68 735.20 C 73.67 733.64 70.56 731.92 67.09 731.85 C 60.64 731.62 54.22 732.52 47.83 733.23 C 50.92 734.06 54.03 734.83 57.15 735.53 C 57.34 736.23 57.72 737.62 57.91 738.32 C 53.50 737.59 49.23 736.21 45.10 734.52 C 46.93 736.17 48.84 737.75 50.50 739.59 C 52.42 741.71 52.78 744.67 53.53 747.33 C 52.01 748.17 50.54 749.10 49.05 750.00 L 0.00 750.00 L 0.00 739.45 C 6.92 736.27 14.06 733.54 20.70 729.77 C 26.92 726.23 33.62 723.56 39.56 719.55 C 44.59 716.17 45.56 708.83 51.54 706.60 C 56.69 704.31 62.23 701.82 64.79 696.42 C 63.10 695.70 61.40 695.00 59.71 694.31 C 60.01 692.89 60.32 691.48 60.63 690.08 C 51.85 679.25 34.20 679.39 23.84 687.82 C 19.61 690.86 19.30 696.47 16.62 700.58 C 13.27 705.85 8.70 710.30 5.97 715.98 C 3.94 720.24 2.08 724.59 0.00 728.84 L 0.00 673.89 C 0.99 671.62 2.46 669.49 2.77 667.00 C 2.84 664.50 2.19 662.06 1.72 659.64 C 3.86 658.45 6.08 657.42 8.34 656.50 C 5.84 664.87 1.87 672.86 1.16 681.70 C 2.86 680.19 4.73 678.68 5.50 676.47 C 7.61 670.89 8.70 665.01 10.30 659.29 C 10.95 660.22 11.60 661.15 12.24 662.10 C 12.78 659.60 13.30 657.09 13.79 654.59 C 16.72 653.68 19.64 652.74 22.40 651.40 C 30.70 647.37 39.07 643.47 47.09 638.91 C 50.80 636.33 54.17 633.23 58.26 631.22 C 66.72 626.28 74.11 619.78 81.89 613.90 C 87.69 609.80 95.08 609.86 101.85 609.09 C 102.25 607.37 102.63 605.64 103.07 603.94 C 103.50 606.07 104.54 607.99 105.71 609.81 C 107.09 605.56 107.69 601.11 107.82 596.66 C 113.49 590.81 122.09 590.60 129.47 588.53 C 135.30 586.88 141.50 585.20 146.19 581.21 C 149.39 576.90 148.26 570.79 151.31 566.34 C 154.26 561.19 160.28 559.51 165.43 557.49 C 170.86 555.59 175.99 552.97 180.87 549.95 C 183.90 550.62 186.93 551.29 189.92 552.14 C 192.60 548.79 194.37 544.87 195.56 540.78 C 192.85 541.39 190.07 541.85 187.29 541.50 C 192.02 535.85 196.51 529.85 202.64 525.62 C 207.45 521.37 213.46 519.01 218.98 515.90 C 222.49 514.07 224.18 510.30 226.53 507.32 C 233.80 498.64 242.26 490.75 252.24 485.27 C 255.98 483.33 258.27 479.73 260.27 476.18 C 263.30 470.77 267.96 466.60 272.17 462.14 C 274.95 459.16 278.38 456.90 282.02 455.11 Z" />
<path fill="#9f9797" d=" M 1097.89 471.69 C 1099.03 474.38 1100.44 477.02 1100.86 479.96 C 1102.07 488.79 1098.55 497.68 1100.63 506.46 C 1103.70 522.69 1113.46 536.63 1124.34 548.66 C 1130.28 555.32 1137.36 560.82 1143.40 567.38 C 1136.06 569.06 1130.38 562.96 1125.12 558.88 C 1118.44 553.73 1115.10 545.25 1107.67 541.00 C 1105.35 539.66 1103.79 537.45 1102.45 535.20 C 1103.44 533.37 1104.44 531.55 1105.42 529.71 C 1104.72 529.18 1104.03 528.66 1103.35 528.14 C 1104.01 528.11 1105.31 528.05 1105.97 528.03 C 1104.74 525.29 1103.44 522.60 1102.10 519.94 C 1097.07 510.31 1094.59 499.04 1096.49 488.25 C 1097.38 482.77 1097.86 477.24 1097.89 471.69 Z" />
<path fill="#9f9797" d=" M 937.79 515.83 C 946.53 513.31 955.62 515.12 964.53 515.00 C 969.63 517.28 975.14 519.01 979.62 522.40 C 982.60 527.91 981.17 534.85 984.87 540.12 C 988.39 537.50 991.09 534.04 994.02 530.82 C 994.33 536.20 993.78 541.60 994.26 546.97 C 994.59 550.97 995.24 554.96 995.08 558.99 C 995.00 562.80 994.35 566.75 995.66 570.45 C 996.95 574.35 998.39 578.22 999.24 582.26 C 989.71 575.62 985.04 564.43 980.73 554.08 C 977.29 544.96 971.63 536.92 965.74 529.25 C 960.73 523.03 952.36 521.28 944.75 521.34 C 944.57 527.16 948.47 531.92 951.70 536.38 C 957.42 542.44 966.44 542.10 973.81 544.76 C 969.18 546.31 963.55 549.19 958.95 546.08 C 954.48 542.98 949.39 539.83 947.46 534.45 C 945.95 530.68 944.00 527.10 941.62 523.81 C 939.63 525.38 937.34 526.78 936.10 529.07 C 931.36 540.18 932.07 552.63 934.06 564.28 C 935.44 569.16 938.32 573.44 940.26 578.11 C 935.54 580.23 931.08 583.16 925.94 584.19 C 920.91 585.04 915.83 584.05 910.87 583.23 C 905.99 566.02 907.06 547.09 914.42 530.75 C 915.85 537.76 919.71 543.85 922.82 550.19 C 924.45 553.41 926.55 556.36 928.82 559.16 C 928.12 551.86 925.67 544.57 927.08 537.20 C 928.06 531.92 929.80 526.54 933.44 522.46 C 935.66 520.03 938.32 518.05 940.81 515.90 C 940.06 515.88 938.55 515.85 937.79 515.83 Z" />
<path fill="#ac5e59" d=" M 934.11 516.83 C 935.32 516.45 936.54 516.11 937.79 515.83 C 938.55 515.85 940.06 515.88 940.81 515.90 C 938.32 518.05 935.66 520.03 933.44 522.46 C 929.80 526.54 928.06 531.92 927.08 537.20 C 925.67 544.57 928.12 551.86 928.82 559.16 C 926.55 556.36 924.45 553.41 922.82 550.19 C 919.71 543.85 915.85 537.76 914.42 530.75 C 915.82 527.99 917.42 525.29 919.64 523.09 C 922.13 522.98 924.74 523.13 927.13 522.24 C 929.86 521.03 931.88 518.75 934.11 516.83 Z" />
<path fill="#9f9797" d=" M 919.64 523.09 C 923.76 519.65 929.00 518.13 934.11 516.83 C 931.88 518.75 929.86 521.03 927.13 522.24 C 924.74 523.13 922.13 522.98 919.64 523.09 Z" />
<path fill="#b3b3b3" d=" M 944.75 521.34 C 952.36 521.28 960.73 523.03 965.74 529.25 C 971.63 536.92 977.29 544.96 980.73 554.08 C 985.04 564.43 989.71 575.62 999.24 582.26 C 998.39 578.22 996.95 574.35 995.66 570.45 C 994.35 566.75 995.00 562.80 995.08 558.99 C 995.24 554.96 994.59 550.97 994.26 546.97 C 993.78 541.60 994.33 536.20 994.02 530.82 C 1000.38 523.64 1010.98 520.84 1020.06 523.96 C 1031.03 527.18 1039.74 535.22 1046.28 544.34 C 1040.39 546.59 1034.19 547.90 1028.04 549.19 C 1022.46 550.76 1018.07 546.01 1014.16 542.83 C 1008.70 538.58 1008.37 529.88 1001.39 527.36 C 1002.82 531.52 1004.47 535.61 1006.38 539.59 C 1009.11 545.59 1014.98 549.37 1020.65 552.27 C 1023.86 554.09 1027.48 552.85 1030.81 552.12 C 1034.31 551.10 1037.81 553.44 1040.00 556.00 C 1040.67 558.38 1039.91 560.92 1040.21 563.37 C 1042.00 565.44 1044.87 566.05 1047.30 567.11 C 1046.56 569.22 1046.31 571.95 1043.99 572.97 C 1040.28 574.96 1036.28 576.37 1032.74 578.68 C 1039.35 577.31 1045.73 574.90 1051.53 571.43 C 1052.06 572.84 1052.62 574.27 1053.20 575.69 C 1061.30 579.69 1065.04 589.14 1073.57 592.57 C 1066.42 597.07 1065.01 606.39 1058.13 611.12 C 1050.83 616.57 1040.91 615.99 1032.65 613.33 C 1021.30 609.69 1012.41 601.19 1005.08 592.11 C 997.42 596.74 992.09 605.30 982.89 607.10 C 973.40 609.06 963.71 604.58 956.99 598.04 C 955.18 596.69 953.57 594.32 951.06 594.67 C 938.01 595.71 923.79 596.32 912.05 589.61 C 911.70 587.47 911.33 585.33 910.87 583.23 C 915.83 584.05 920.91 585.04 925.94 584.19 C 931.08 583.16 935.54 580.23 940.26 578.11 C 938.32 573.44 935.44 569.16 934.06 564.28 C 932.07 552.63 931.36 540.18 936.10 529.07 C 937.34 526.78 939.63 525.38 941.62 523.81 C 944.00 527.10 945.95 530.68 947.46 534.45 C 949.39 539.83 954.48 542.98 958.95 546.08 C 963.55 549.19 969.18 546.31 973.81 544.76 C 966.44 542.10 957.42 542.44 951.70 536.38 C 948.47 531.92 944.57 527.16 944.75 521.34 Z" />
<path fill="#9f9797" d=" M 1001.39 527.36 C 1008.37 529.88 1008.70 538.58 1014.16 542.83 C 1018.07 546.01 1022.46 550.76 1028.04 549.19 C 1034.19 547.90 1040.39 546.59 1046.28 544.34 C 1052.90 541.13 1052.18 532.85 1055.90 527.45 C 1059.03 536.23 1057.00 546.12 1061.29 554.56 C 1063.47 559.33 1068.67 561.35 1072.33 564.77 C 1068.24 563.77 1064.27 562.37 1060.37 560.85 C 1061.91 566.96 1063.94 573.07 1067.84 578.13 C 1072.05 583.60 1074.86 590.22 1080.32 594.65 C 1083.11 596.92 1085.59 599.55 1087.84 602.37 C 1082.76 599.55 1078.81 595.08 1073.57 592.57 C 1065.04 589.14 1061.30 579.69 1053.20 575.69 C 1052.62 574.27 1052.06 572.84 1051.53 571.43 C 1045.73 574.90 1039.35 577.31 1032.74 578.68 C 1036.28 576.37 1040.28 574.96 1043.99 572.97 C 1046.31 571.95 1046.56 569.22 1047.30 567.11 C 1044.87 566.05 1042.00 565.44 1040.21 563.37 C 1039.91 560.92 1040.67 558.38 1040.00 556.00 C 1037.81 553.44 1034.31 551.10 1030.81 552.12 C 1027.48 552.85 1023.86 554.09 1020.65 552.27 C 1014.98 549.37 1009.11 545.59 1006.38 539.59 C 1004.47 535.61 1002.82 531.52 1001.39 527.36 Z" />
<path fill="#be9a99" d=" M 208.55 546.62 C 210.34 543.73 212.52 541.11 214.95 538.73 C 216.55 539.26 218.18 539.74 219.74 540.42 C 223.12 542.37 225.52 545.51 227.61 548.73 C 222.07 554.50 215.90 559.60 210.31 565.31 C 203.81 571.90 195.53 576.42 189.26 583.26 C 181.40 590.41 173.67 597.72 165.64 604.69 C 162.89 606.93 159.81 609.65 155.99 609.23 C 152.05 608.91 148.18 608.01 144.25 607.56 C 145.98 611.14 148.29 614.76 148.04 618.90 C 147.82 624.23 147.05 629.54 147.30 634.88 C 144.42 630.11 143.80 624.43 141.64 619.35 C 139.83 613.71 135.31 609.63 132.46 604.58 C 138.82 602.72 145.46 604.18 151.94 603.62 C 154.70 603.47 156.51 601.08 158.31 599.29 C 166.00 590.52 172.45 580.78 179.31 571.38 C 182.53 566.53 189.27 570.19 193.61 567.58 C 195.74 565.62 197.04 562.98 198.60 560.59 C 201.55 555.67 205.49 551.46 208.55 546.62 Z" />
<path fill="#9f9797" d=" M 219.74 540.42 C 225.95 539.06 233.08 539.52 237.95 544.04 C 241.42 548.42 243.58 553.69 245.33 558.96 C 242.62 557.52 239.91 556.08 237.19 554.69 C 234.67 558.10 232.51 561.76 229.91 565.11 C 228.09 567.55 224.95 568.18 222.29 569.29 C 216.99 571.15 212.44 574.60 208.18 578.18 C 205.14 580.74 203.65 584.51 201.55 587.77 C 199.37 591.18 195.72 593.17 192.48 595.43 C 183.47 601.37 174.63 607.57 165.72 613.66 C 161.23 616.81 156.69 620.40 154.48 625.57 C 152.37 630.38 150.53 635.32 147.97 639.92 C 147.71 638.24 147.42 636.57 147.30 634.88 C 147.05 629.54 147.82 624.23 148.04 618.90 C 148.29 614.76 145.98 611.14 144.25 607.56 C 148.18 608.01 152.05 608.91 155.99 609.23 C 159.81 609.65 162.89 606.93 165.64 604.69 C 173.67 597.72 181.40 590.41 189.26 583.26 C 195.53 576.42 203.81 571.90 210.31 565.31 C 215.90 559.60 222.07 554.50 227.61 548.73 C 225.52 545.51 223.12 542.37 219.74 540.42 Z" />
<path fill="#9f9797" d=" M 187.29 541.50 C 190.07 541.85 192.85 541.39 195.56 540.78 C 194.37 544.87 192.60 548.79 189.92 552.14 C 186.93 551.29 183.90 550.62 180.87 549.95 C 183.39 547.42 185.09 544.26 187.29 541.50 Z" />
<path fill="#b3b3b3" d=" M 230.96 553.92 C 232.52 551.98 234.10 554.42 235.08 555.63 C 229.73 560.14 224.20 564.43 218.49 568.49 C 214.33 571.40 210.41 574.72 205.80 576.94 C 206.47 575.07 207.19 573.11 208.86 571.90 C 216.24 565.92 223.66 559.99 230.96 553.92 Z" />
<path fill="#be9a99" d=" M 229.91 565.11 C 232.51 561.76 234.67 558.10 237.19 554.69 C 239.91 556.08 242.62 557.52 245.33 558.96 C 243.21 560.58 240.89 561.98 239.00 563.88 C 237.92 566.34 238.05 569.14 237.70 571.78 C 231.13 575.81 224.65 579.99 218.27 584.31 C 214.76 586.79 209.58 587.23 207.54 591.44 C 204.85 595.92 202.81 601.28 198.01 603.97 C 192.46 607.10 186.80 610.04 181.33 613.32 C 176.41 616.29 170.59 618.25 167.03 623.01 C 163.28 627.92 158.69 632.21 155.69 637.68 C 154.02 640.73 151.72 643.37 149.14 645.68 C 148.23 644.76 147.31 643.85 146.40 642.94 C 146.92 641.93 147.45 640.92 147.97 639.92 C 150.53 635.32 152.37 630.38 154.48 625.57 C 156.69 620.40 161.23 616.81 165.72 613.66 C 174.63 607.57 183.47 601.37 192.48 595.43 C 195.72 593.17 199.37 591.18 201.55 587.77 C 203.65 584.51 205.14 580.74 208.18 578.18 C 212.44 574.60 216.99 571.15 222.29 569.29 C 224.95 568.18 228.09 567.55 229.91 565.11 Z" />
<path fill="#b3b3b3" d=" M 193.27 587.27 C 196.43 584.00 199.84 580.91 203.92 578.84 C 202.59 584.12 199.07 588.60 194.46 591.42 C 190.13 594.05 186.02 597.00 181.96 600.01 C 181.68 598.79 181.40 597.57 181.13 596.36 C 185.29 593.49 189.73 590.93 193.27 587.27 Z" />
<path fill="#9f9797" d=" M 136.01 587.69 C 137.73 587.76 139.45 587.85 141.18 587.95 C 141.00 591.05 140.40 594.13 138.91 596.90 C 138.18 595.23 137.55 593.53 137.03 591.80 C 136.22 591.15 135.41 590.50 134.60 589.85 C 134.95 589.31 135.66 588.23 136.01 587.69 Z" />
<path fill="#9f9797" d=" M 103.07 603.94 C 103.89 601.09 105.78 598.73 107.82 596.66 C 107.69 601.11 107.09 605.56 105.71 609.81 C 104.54 607.99 103.50 606.07 103.07 603.94 Z" />
<path fill="#b3b3b3" d=" M 152.21 614.39 C 155.34 613.84 158.89 611.38 161.93 613.19 C 161.34 615.58 158.98 616.73 157.28 618.24 C 154.57 620.15 153.44 623.39 151.90 626.18 C 150.92 622.28 151.14 618.24 152.21 614.39 Z" />
<path fill="#9f9797" d=" M 188.15 617.22 C 194.27 614.75 200.67 612.38 207.40 612.92 C 204.16 614.60 200.70 615.83 197.11 616.52 C 200.59 616.36 203.97 617.19 207.15 618.55 C 200.72 621.36 193.61 622.04 186.71 622.96 C 187.21 621.04 187.69 619.13 188.15 617.22 Z" />
<path fill="#9f9797" d=" M 79.98 640.97 C 84.04 639.88 88.08 641.85 91.85 643.16 C 96.32 645.07 100.98 646.56 105.33 648.74 C 110.14 651.44 111.93 657.07 113.95 661.85 C 112.00 664.26 109.69 666.58 108.78 669.63 C 107.82 672.42 107.61 675.49 106.13 678.10 C 102.44 680.56 97.58 681.33 93.57 679.14 C 96.28 676.04 99.77 673.76 102.54 670.73 C 101.59 663.33 97.08 657.12 92.17 651.78 C 88.86 647.35 83.74 644.91 79.98 640.97 Z" />
<path fill="#9f9797" d=" M 153.52 646.90 C 160.92 648.98 168.57 648.10 176.07 647.21 C 175.33 648.98 174.52 650.75 173.52 652.41 C 168.05 651.77 162.40 653.29 157.07 651.54 C 154.89 651.05 154.45 648.57 153.52 646.90 Z" />
<path fill="#9f9797" d=" M 150.86 657.01 C 150.03 654.88 151.79 652.59 154.03 652.66 C 158.74 652.30 163.02 654.76 167.25 656.45 C 161.78 656.35 156.33 657.38 150.86 657.01 Z" />
<path fill="#9f9797" d=" M 8.34 656.50 C 10.13 655.79 11.96 655.17 13.79 654.59 C 13.30 657.09 12.78 659.60 12.24 662.10 C 11.60 661.15 10.95 660.22 10.30 659.29 C 8.70 665.01 7.61 670.89 5.50 676.47 C 4.73 678.68 2.86 680.19 1.16 681.70 C 1.87 672.86 5.84 664.87 8.34 656.50 Z" />
<path fill="#9f9797" d=" M 0.00 660.67 C 0.43 660.41 1.29 659.90 1.72 659.64 C 2.19 662.06 2.84 664.50 2.77 667.00 C 2.46 669.49 0.99 671.62 0.00 673.89 L 0.00 660.67 Z" />
<path fill="#9f9797" d=" M 9.94 669.19 C 13.21 668.88 15.10 665.95 17.28 663.85 C 17.72 665.23 18.24 666.60 18.48 668.04 C 17.58 669.44 16.34 670.59 15.20 671.81 C 15.10 671.19 14.89 669.95 14.78 669.33 C 13.15 671.16 11.35 672.89 10.12 675.04 C 8.74 677.51 8.45 680.70 5.92 682.38 C 6.31 677.74 8.02 673.38 9.94 669.19 Z" />
<path fill="#be9a99" d=" M 23.84 687.82 C 34.20 679.39 51.85 679.25 60.63 690.08 C 60.32 691.48 60.01 692.89 59.71 694.31 C 61.40 695.00 63.10 695.70 64.79 696.42 C 62.23 701.82 56.69 704.31 51.54 706.60 C 45.56 708.83 44.59 716.17 39.56 719.55 C 33.62 723.56 26.92 726.23 20.70 729.77 C 14.06 733.54 6.92 736.27 0.00 739.45 L 0.00 735.60 C 6.38 731.16 13.77 727.64 18.23 721.01 C 10.92 721.84 5.60 727.35 0.00 731.56 L 0.00 728.84 C 2.08 724.59 3.94 720.24 5.97 715.98 C 8.70 710.30 13.27 705.85 16.62 700.58 C 19.30 696.47 19.61 690.86 23.84 687.82 Z" />
<path fill="#b3b3b3" d=" M 41.30 690.06 C 44.81 690.42 48.27 691.17 51.61 692.30 C 51.69 692.93 51.84 694.19 51.92 694.82 C 49.59 694.71 47.25 694.61 44.92 694.48 C 42.29 698.24 39.99 702.20 37.51 706.05 C 36.72 705.04 35.84 704.07 35.27 702.92 C 36.49 698.31 39.15 694.27 41.30 690.06 Z" />
<path fill="#9f9797" d=" M 46.57 713.81 C 46.82 713.69 47.33 713.46 47.59 713.34 C 49.74 715.67 51.56 718.29 53.58 720.74 C 51.36 721.74 49.14 722.76 46.96 723.86 C 52.86 723.77 58.39 721.69 63.94 719.95 C 60.22 724.01 54.99 725.92 49.97 727.84 C 57.73 727.68 65.27 725.66 72.96 724.84 C 72.08 725.84 71.21 726.85 70.33 727.86 C 72.88 727.93 75.42 728.03 77.97 728.14 C 77.95 728.79 77.91 730.10 77.89 730.75 C 70.90 731.12 63.89 731.48 56.89 731.24 C 52.85 731.12 49.21 729.15 45.35 728.19 C 45.27 723.39 45.13 718.45 46.57 713.81 Z" />
<path fill="#b3b3b3" d=" M 0.00 731.56 C 5.60 727.35 10.92 721.84 18.23 721.01 C 13.77 727.64 6.38 731.16 0.00 735.60 L 0.00 731.56 Z" />
<path fill="#9f9797" d=" M 47.83 733.23 C 54.22 732.52 60.64 731.62 67.09 731.85 C 70.56 731.92 73.67 733.64 76.68 735.20 C 74.15 735.98 71.60 736.71 69.04 737.37 C 70.47 738.41 71.89 739.47 73.32 740.53 C 67.22 744.12 60.00 744.69 53.53 747.33 C 52.78 744.67 52.42 741.71 50.50 739.59 C 48.84 737.75 46.93 736.17 45.10 734.52 C 49.23 736.21 53.50 737.59 57.91 738.32 C 57.72 737.62 57.34 736.23 57.15 735.53 C 54.03 734.83 50.92 734.06 47.83 733.23 Z" />
</svg>
