<?xml version="1.0" encoding="UTF-8" ?>
<!DOCTYPE svg PUBLIC "-//W3C//DTD SVG 1.1//EN" "http://www.w3.org/Graphics/SVG/1.1/DTD/svg11.dtd">
<svg width="63pt" height="21pt" viewBox="0 0 63 21" version="1.1" xmlns="http://www.w3.org/2000/svg">
<g id="#ffffffff">
</g>
<g id="#60b1f3ff">
<path fill="#60b1f3" opacity="1.00" d=" M 6.06 7.24 C 6.26 7.04 6.67 6.63 6.87 6.43 C 6.67 6.63 6.26 7.04 6.06 7.24 Z" />
<path fill="#60b1f3" opacity="1.00" d=" M 17.86 6.40 C 19.23 5.58 20.74 7.82 19.86 8.99 C 19.42 8.69 18.52 8.09 18.07 7.79 L 17.77 7.14 L 17.86 6.40 Z" />
<path fill="#60b1f3" opacity="1.00" d=" M 23.98 5.99 C 27.34 5.81 23.74 11.88 25.91 13.86 C 25.47 13.91 24.58 14.01 24.14 14.06 C 24.07 11.37 24.02 8.68 23.98 5.99 Z" />
<path fill="#60b1f3" opacity="1.00" d=" M 29.98 5.99 C 33.34 5.81 29.74 11.88 31.91 13.86 C 31.47 13.91 30.58 14.01 30.14 14.06 C 30.07 11.37 30.02 8.68 29.98 5.99 Z" />
<path fill="#60b1f3" opacity="1.00" d=" M 39.96 6.24 C 39.96 6.36 39.95 6.61 39.95 6.74 L 39.96 6.24 Z" />
<path fill="#60b1f3" opacity="1.00" d=" M 46.91 6.44 C 49.32 6.88 47.42 10.51 46.96 12.07 C 46.67 11.79 46.10 11.23 45.81 10.95 L 45.77 10.13 L 46.23 9.22 C 46.36 8.67 46.62 7.56 46.76 7.00 L 46.91 6.44 Z" />
<path fill="#60b1f3" opacity="1.00" d=" M 54.87 6.40 C 57.26 6.06 55.96 10.63 53.95 9.83 C 54.04 9.40 54.20 8.53 54.29 8.10 C 54.39 7.82 54.60 7.28 54.70 7.00 L 54.87 6.40 Z" />
<path fill="#60b1f3" opacity="1.00" d=" M 5.15 8.01 C 5.38 7.82 5.83 7.43 6.06 7.24 L 5.94 7.98 L 5.15 8.01 Z" />
<path fill="#60b1f3" opacity="1.00" d=" M 36.14 7.09 L 36.81 7.19 C 36.81 7.87 36.82 9.23 36.82 9.91 L 36.19 10.13 C 36.18 9.37 36.15 7.85 36.14 7.09 Z" />
<path fill="#60b1f3" opacity="1.00" d=" M 43.24 7.02 L 43.99 7.15 C 43.99 7.82 44.00 9.17 44.00 9.85 L 43.27 10.09 C 43.27 9.32 43.25 7.79 43.24 7.02 Z" />
<path fill="#60b1f3" opacity="1.00" d=" M 50.82 8.16 C 51.09 7.93 51.64 7.45 51.91 7.21 C 51.92 7.69 51.95 8.66 51.97 9.14 L 51.16 9.03 L 50.82 8.16 Z" />
<path fill="#60b1f3" opacity="1.00" d=" M 4.99 13.87 C 3.27 13.24 3.28 8.57 5.15 8.01 C 5.10 9.96 5.06 11.92 4.99 13.87 Z" />
<path fill="#60b1f3" opacity="1.00" d=" M 5.94 7.98 L 6.61 7.93 C 7.23 9.62 7.33 11.54 7.75 13.25 C 5.29 12.72 5.95 9.82 5.94 7.98 Z" />
<path fill="#60b1f3" opacity="1.00" d=" M 16.20 7.98 L 16.79 8.11 C 16.94 9.38 16.98 10.65 16.93 11.93 C 16.49 11.95 15.60 12.01 15.16 12.04 L 15.14 11.14 C 15.15 10.93 15.17 10.52 15.17 10.31 C 15.43 9.73 15.94 8.56 16.20 7.98 Z" />
<path fill="#60b1f3" opacity="1.00" d=" M 20.09 11.18 C 21.45 10.94 23.04 14.86 20.89 14.76 C 20.74 14.56 20.43 14.17 20.28 13.97 L 19.90 13.15 C 19.95 12.66 20.04 11.68 20.09 11.18 Z" />
<path fill="#60b1f3" opacity="1.00" d=" M 43.25 10.95 L 43.92 11.22 C 44.54 12.17 44.62 14.97 43.03 14.77 C 42.93 13.48 43.01 12.21 43.25 10.95 Z" />
<path fill="#60b1f3" opacity="1.00" d=" M 52.98 14.81 C 52.80 13.44 52.82 11.97 53.64 10.78 C 54.41 11.79 54.80 14.91 52.98 14.81 Z" />
<path fill="#60b1f3" opacity="1.00" d=" M 14.22 12.92 C 14.45 12.70 14.92 12.26 15.16 12.04 L 15.01 12.90 L 14.22 12.92 Z" />
<path fill="#60b1f3" opacity="1.00" d=" M 36.20 11.92 L 36.98 12.20 C 36.95 12.60 36.90 13.41 36.88 13.82 L 36.14 13.89 C 36.16 13.39 36.19 12.41 36.20 11.92 Z" />
<path fill="#60b1f3" opacity="1.00" d=" M 46.96 12.07 C 47.19 12.28 47.63 12.71 47.85 12.92 L 47.10 12.87 L 46.96 12.07 Z" />
<path fill="#60b1f3" opacity="1.00" d=" M 7.75 13.25 C 8.22 13.21 9.17 13.13 9.64 13.09 L 9.94 13.83 C 9.39 13.68 8.30 13.39 7.75 13.25 Z" />
<path fill="#60b1f3" opacity="1.00" d=" M 14.08 14.70 C 12.52 14.19 12.56 13.60 14.22 12.92 C 14.19 13.36 14.12 14.26 14.08 14.70 Z" />
<path fill="#60b1f3" opacity="1.00" d=" M 15.01 12.90 L 15.87 13.00 C 15.65 13.43 15.20 14.28 14.98 14.70 C 14.99 14.25 15.00 13.35 15.01 12.90 Z" />
<path fill="#60b1f3" opacity="1.00" d=" M 47.85 12.92 C 49.46 13.66 49.47 14.24 47.86 14.67 C 47.86 14.23 47.85 13.36 47.85 12.92 Z" />
<path fill="#60b1f3" opacity="1.00" d=" M 4.99 13.87 C 5.49 14.11 6.48 14.58 6.98 14.82 C 6.48 14.58 5.49 14.11 4.99 13.87 Z" />
<path fill="#60b1f3" opacity="1.00" d=" M 39.96 14.26 C 39.96 14.39 39.96 14.64 39.96 14.77 L 39.96 14.26 Z" />
</g>
<g id="#1c0058ff">
<path fill="#1c0058" opacity="1.00" d=" M 6.87 6.43 C 13.66 5.04 12.37 8.35 6.61 7.93 L 5.94 7.98 L 6.06 7.24 C 6.26 7.04 6.67 6.63 6.87 6.43 Z" />
<path fill="#1c0058" opacity="1.00" d=" M 54.29 8.10 C 54.39 7.82 54.60 7.28 54.70 7.00 C 54.60 7.28 54.39 7.82 54.29 8.10 Z" />
<path fill="#1c0058" opacity="1.00" d=" M 5.15 8.01 L 5.94 7.98 C 5.95 9.82 5.29 12.72 7.75 13.25 C 8.30 13.39 9.39 13.68 9.94 13.83 C 11.08 13.36 11.38 12.45 10.84 11.09 L 10.81 10.26 C 15.89 11.89 10.59 17.13 6.98 14.82 C 6.48 14.58 5.49 14.11 4.99 13.87 C 5.06 11.92 5.10 9.96 5.15 8.01 Z" />
<path fill="#1c0058" opacity="1.00" d=" M 18.07 7.79 C 18.52 8.09 19.42 8.69 19.86 8.99 C 19.92 9.54 20.03 10.63 20.09 11.18 C 20.04 11.68 19.95 12.66 19.90 13.15 L 19.04 13.16 C 18.25 13.12 16.66 13.04 15.87 13.00 L 15.01 12.90 L 15.16 12.04 C 15.60 12.01 16.49 11.95 16.93 11.93 C 19.83 12.47 18.55 9.29 18.07 7.79 Z" />
<path fill="#1c0058" opacity="1.00" d=" M 51.16 9.03 L 51.97 9.14 C 52.46 9.31 53.46 9.66 53.95 9.83 L 53.64 10.78 C 52.82 11.97 52.80 13.44 52.98 14.81 L 52.03 14.80 C 52.16 13.42 52.19 11.86 51.15 10.80 C 51.15 10.36 51.16 9.47 51.16 9.03 Z" />
<path fill="#1c0058" opacity="1.00" d=" M 15.17 10.31 C 15.17 10.52 15.15 10.93 15.14 11.14 L 15.17 10.31 Z" />
<path fill="#1c0058" opacity="1.00" d=" M 36.19 10.13 L 36.82 9.91 C 39.92 8.85 42.51 11.67 37.86 11.13 C 37.46 11.08 36.65 10.98 36.25 10.93 L 36.19 10.13 Z" />
<path fill="#1c0058" opacity="1.00" d=" M 47.10 12.87 L 47.85 12.92 C 47.85 13.36 47.86 14.23 47.86 14.67 L 46.94 14.63 C 46.98 14.19 47.06 13.31 47.10 12.87 Z" />
<path fill="#1c0058" opacity="1.00" d=" M 24.14 14.06 C 24.58 14.01 25.47 13.91 25.91 13.86 C 29.95 13.85 25.72 16.44 24.12 14.74 L 24.14 14.06 Z" />
<path fill="#1c0058" opacity="1.00" d=" M 30.14 14.06 C 30.58 14.01 31.47 13.91 31.91 13.86 C 35.95 13.85 31.72 16.44 30.12 14.74 L 30.14 14.06 Z" />
</g>
<g id="#923d01ff">
<path fill="#923d01" opacity="1.00" d=" M 16.20 7.98 C 15.72 6.22 16.27 5.70 17.86 6.40 L 17.77 7.14 C 17.52 7.38 17.04 7.87 16.79 8.11 L 16.20 7.98 Z" />
<path fill="#923d01" opacity="1.00" d=" M 24.12 14.74 C 22.54 16.08 22.08 6.10 23.98 5.99 C 24.02 8.68 24.07 11.37 24.14 14.06 L 24.12 14.74 Z" />
<path fill="#923d01" opacity="1.00" d=" M 30.12 14.74 C 28.54 16.08 28.08 6.10 29.98 5.99 C 30.02 8.68 30.07 11.37 30.14 14.06 L 30.12 14.74 Z" />
<path fill="#923d01" opacity="1.00" d=" M 36.15 14.60 C 34.42 16.86 34.14 5.26 36.16 6.37 L 36.14 7.09 C 36.15 7.85 36.18 9.37 36.19 10.13 L 36.25 10.93 L 36.20 11.92 C 36.19 12.41 36.16 13.39 36.14 13.89 L 36.15 14.60 Z" />
<path fill="#923d01" opacity="1.00" d=" M 43.03 14.77 C 41.25 16.47 41.20 5.48 43.19 6.29 L 43.24 7.02 C 43.25 7.79 43.27 9.32 43.27 10.09 L 43.25 10.95 C 43.01 12.21 42.93 13.48 43.03 14.77 Z" />
<path fill="#923d01" opacity="1.00" d=" M 20.28 13.97 C 20.43 14.17 20.74 14.56 20.89 14.76 L 20.15 14.65 L 20.28 13.97 Z" />
</g>
<g id="#030000ff">
<path fill="#030000" opacity="1.00" d=" M 36.16 6.37 C 37.39 5.73 38.66 5.69 39.96 6.24 L 39.95 6.74 C 39.16 6.85 37.59 7.08 36.81 7.19 L 36.14 7.09 L 36.16 6.37 Z" />
<path fill="#030000" opacity="1.00" d=" M 43.19 6.29 C 44.44 5.60 45.68 5.65 46.91 6.44 L 46.76 7.00 L 45.93 7.22 C 45.45 7.20 44.47 7.17 43.99 7.15 L 43.24 7.02 L 43.19 6.29 Z" />
<path fill="#030000" opacity="1.00" d=" M 9.08 10.19 C 9.52 10.20 10.38 10.24 10.81 10.26 L 10.84 11.09 L 10.08 11.25 L 9.12 10.83 L 9.08 10.19 Z" />
<path fill="#030000" opacity="1.00" d=" M 43.27 10.09 L 44.00 9.85 C 44.45 9.92 45.33 10.06 45.77 10.13 L 45.81 10.95 L 45.10 11.24 L 43.92 11.22 L 43.25 10.95 L 43.27 10.09 Z" />
<path fill="#030000" opacity="1.00" d=" M 36.14 13.89 L 36.88 13.82 C 37.65 13.93 39.19 14.15 39.96 14.26 L 39.96 14.77 C 38.65 15.32 37.38 15.27 36.15 14.60 L 36.14 13.89 Z" />
</g>
<g id="#f5be6fff">
<path fill="#f5be6f" opacity="1.00" d=" M 51.15 10.80 C 49.46 10.85 47.81 6.67 49.92 6.26 C 50.14 6.74 50.59 7.69 50.82 8.16 L 51.16 9.03 C 51.16 9.47 51.15 10.36 51.15 10.80 Z" />
<path fill="#f5be6f" opacity="1.00" d=" M 51.97 9.14 C 52.72 8.11 52.97 5.09 54.87 6.40 L 54.70 7.00 C 54.60 7.28 54.39 7.82 54.29 8.10 C 54.20 8.53 54.04 9.40 53.95 9.83 C 53.46 9.66 52.46 9.31 51.97 9.14 Z" />
<path fill="#f5be6f" opacity="1.00" d=" M 45.93 7.22 L 46.76 7.00 C 46.62 7.56 46.36 8.67 46.23 9.22 C 46.15 8.72 46.01 7.72 45.93 7.22 Z" />
<path fill="#f5be6f" opacity="1.00" d=" M 9.12 10.83 C 9.11 10.67 9.09 10.35 9.08 10.19 L 9.12 10.83 Z" />
<path fill="#f5be6f" opacity="1.00" d=" M 10.08 11.25 L 10.84 11.09 C 11.38 12.45 11.08 13.36 9.94 13.83 L 9.64 13.09 C 9.75 12.63 9.97 11.71 10.08 11.25 Z" />
<path fill="#f5be6f" opacity="1.00" d=" M 45.10 11.24 L 45.81 10.95 C 46.10 11.23 46.67 11.79 46.96 12.07 L 47.10 12.87 C 47.06 13.31 46.98 14.19 46.94 14.63 C 45.79 14.61 44.64 12.41 45.10 11.24 Z" />
<path fill="#f5be6f" opacity="1.00" d=" M 51.15 10.80 C 52.19 11.86 52.16 13.42 52.03 14.80 C 50.25 14.90 50.57 11.88 51.15 10.80 Z" />
<path fill="#f5be6f" opacity="1.00" d=" M 19.04 13.16 L 19.90 13.15 L 20.28 13.97 L 20.15 14.65 C 19.87 14.28 19.32 13.53 19.04 13.16 Z" />
</g>
<g id="#0058aaff">
<path fill="#0058aa" opacity="1.00" d=" M 49.92 6.26 C 50.41 6.50 51.41 6.97 51.91 7.21 C 51.64 7.45 51.09 7.93 50.82 8.16 C 50.59 7.69 50.14 6.74 49.92 6.26 Z" />
<path fill="#0058aa" opacity="1.00" d=" M 36.25 10.93 C 36.65 10.98 37.46 11.08 37.86 11.13 C 37.64 11.39 37.20 11.93 36.98 12.20 L 36.20 11.92 L 36.25 10.93 Z" />
<path fill="#0058aa" opacity="1.00" d=" M 14.22 12.92 L 15.01 12.90 C 15.00 13.35 14.99 14.25 14.98 14.70 L 14.08 14.70 C 14.12 14.26 14.19 13.36 14.22 12.92 Z" />
</g>
</svg>
