<?xml version="1.0" encoding="UTF-8" ?>
<!DOCTYPE svg PUBLIC "-//W3C//DTD SVG 1.1//EN" "http://www.w3.org/Graphics/SVG/1.1/DTD/svg11.dtd">
<svg width="500pt" height="250pt" viewBox="0 0 500 250" version="1.1" xmlns="http://www.w3.org/2000/svg">
<g id="#5b5b5bff">
<path fill="#5b5b5b" opacity="1.00" d=" M 0.00 0.00 L 1.00 0.00 C 1.23 74.26 0.54 148.55 1.33 222.78 C 16.09 221.15 27.79 231.50 42.24 232.88 C 28.16 232.98 14.08 233.05 0.00 232.99 L 0.00 0.00 Z" />
<path fill="#5b5b5b" opacity="1.00" d=" M 67.34 0.00 L 89.48 0.00 C 82.98 13.89 97.36 30.03 86.29 43.25 C 77.89 59.30 107.02 49.00 112.56 59.47 C 114.36 61.28 116.68 68.84 119.04 64.11 C 121.66 65.25 124.79 68.36 127.31 65.42 C 134.18 57.83 145.20 57.77 154.41 60.24 C 159.50 64.31 159.06 72.83 166.11 74.99 C 155.46 73.45 148.60 56.92 136.42 65.44 C 125.29 70.08 148.31 71.96 142.05 77.24 C 146.80 78.47 161.43 80.20 149.82 81.70 C 155.92 78.25 139.81 81.57 136.47 78.66 C 133.37 73.85 128.48 71.06 123.09 69.44 C 111.77 81.27 112.51 101.80 122.31 113.99 C 127.78 113.58 138.71 116.93 136.64 124.17 C 141.63 120.87 146.46 130.26 150.43 124.40 C 155.32 120.65 152.96 129.53 152.11 132.02 C 146.01 136.61 141.46 136.60 140.43 130.33 C 144.14 131.47 151.23 135.44 150.65 128.26 C 133.71 128.11 120.58 116.76 110.21 104.68 C 111.54 99.41 113.93 94.20 109.10 89.90 C 112.40 81.43 114.55 70.68 109.04 62.73 C 104.01 61.17 85.69 54.25 90.60 64.53 C 96.98 77.93 75.05 75.02 67.09 75.55 C 77.74 65.26 73.64 54.57 66.80 44.30 C 74.80 29.69 58.26 15.57 67.34 0.00 Z" />
<path fill="#5b5b5b" opacity="1.00" d=" M 222.20 0.00 L 242.81 0.00 C 243.13 10.39 243.02 20.78 242.84 31.16 C 241.81 23.21 242.28 15.20 242.03 7.22 C 231.68 27.05 244.58 62.69 219.18 75.27 C 227.08 60.61 223.43 43.13 226.34 27.26 C 225.35 18.15 232.98 5.40 222.20 0.00 Z" />
<path fill="#5b5b5b" opacity="1.00" d=" M 336.32 0.00 L 350.58 0.00 C 342.56 15.11 355.69 34.76 344.11 49.07 C 352.14 52.44 364.40 52.98 370.97 61.04 C 374.51 65.85 382.41 67.02 387.04 63.14 C 397.63 55.78 416.57 57.38 420.74 71.30 C 427.43 74.44 445.48 79.24 440.31 89.39 C 421.98 87.07 401.92 84.54 387.06 72.36 C 368.00 70.02 372.59 97.42 376.72 109.19 C 388.36 113.70 398.56 122.12 410.81 124.08 C 409.42 139.10 392.54 123.38 386.24 132.29 C 382.32 139.48 369.57 132.16 367.04 138.88 C 372.40 152.69 390.03 148.85 401.70 149.72 C 407.07 149.33 423.02 142.85 421.20 153.13 C 405.20 162.69 385.20 155.41 368.09 160.26 C 369.07 171.17 386.59 163.63 390.39 171.06 C 380.17 175.07 368.43 170.88 358.27 174.29 C 353.94 179.25 362.90 181.43 366.39 183.66 C 387.92 189.20 411.59 187.65 430.19 175.14 C 438.93 166.13 442.84 152.45 454.77 146.77 C 470.94 144.26 463.08 119.53 477.79 114.96 C 473.87 122.51 486.96 122.28 487.90 115.85 C 489.85 108.61 495.57 104.60 500.00 99.34 L 500.00 192.63 C 479.30 197.40 467.97 218.98 447.41 224.27 C 435.16 224.78 419.84 223.07 410.67 233.01 C 405.75 233.12 400.82 233.08 395.91 233.13 C 402.58 229.72 389.47 222.08 399.08 220.03 C 419.84 212.43 445.24 207.36 457.71 186.71 C 463.52 173.56 477.47 166.80 485.04 155.07 C 476.73 157.51 468.07 159.49 460.83 164.46 C 451.08 150.37 438.65 171.31 430.33 178.32 C 406.44 190.69 372.05 196.70 350.22 177.76 C 342.76 169.00 360.58 171.90 363.86 167.99 C 358.91 150.47 324.53 171.91 331.21 148.20 C 357.17 159.57 391.11 161.28 419.08 152.89 C 419.65 148.20 412.68 150.76 410.61 150.55 C 387.78 151.24 361.68 153.87 342.81 138.27 C 329.51 135.48 338.20 119.79 336.67 111.08 C 338.07 103.90 329.60 98.88 332.70 92.02 C 331.80 88.27 322.61 90.28 324.18 85.07 C 335.82 86.66 348.65 81.69 359.39 84.64 C 357.71 92.85 358.19 104.56 349.97 110.00 C 344.02 114.74 343.17 122.60 342.46 129.62 C 346.38 132.95 355.11 137.44 358.63 133.04 C 355.05 125.28 368.52 127.10 365.64 134.05 C 371.51 133.56 382.02 137.46 385.23 130.16 C 389.86 121.72 405.26 136.00 408.10 126.02 C 399.56 124.50 391.45 121.83 384.80 116.17 C 365.40 109.88 370.45 85.25 373.80 70.22 C 368.79 53.25 349.14 59.05 336.70 55.33 C 326.18 46.12 344.62 35.26 337.99 25.08 C 332.66 17.56 334.87 8.33 336.32 0.00 M 398.65 63.41 C 395.68 64.03 391.12 65.18 390.99 68.87 C 395.52 77.27 407.33 76.41 412.09 84.02 C 420.87 86.47 430.63 84.12 438.87 87.73 C 439.86 78.67 428.30 75.83 421.64 74.39 C 412.72 72.88 408.71 59.72 398.65 63.41 Z" />
<path fill="#5b5b5b" opacity="1.00" d=" M 479.26 0.00 L 500.00 0.00 L 500.00 12.22 C 493.37 7.42 496.89 21.69 494.96 24.97 C 491.32 39.80 496.20 59.10 482.63 69.62 C 478.46 71.76 473.72 81.65 481.80 79.39 C 488.42 82.71 487.49 93.87 485.22 100.11 C 484.51 96.10 487.75 90.52 484.73 87.03 C 473.19 86.77 484.17 103.30 475.23 106.90 C 473.97 98.30 472.99 88.55 480.34 82.16 C 470.49 80.72 477.79 70.20 480.41 65.29 C 483.57 47.01 483.33 28.18 485.37 9.72 C 485.97 5.52 481.27 3.08 479.26 0.00 Z" />
<path fill="#5b5b5b" opacity="1.00" d=" M 86.09 78.96 C 92.08 80.15 101.70 78.55 104.18 85.97 C 108.75 93.64 101.40 101.47 99.44 108.83 C 107.12 108.12 102.07 118.79 97.45 113.60 C 94.68 108.52 91.40 114.43 88.52 116.57 C 92.74 109.59 100.01 103.33 96.88 94.26 C 100.90 89.82 104.56 80.92 95.16 84.23 C 97.42 78.88 86.30 83.50 86.09 78.96 Z" />
<path fill="#5b5b5b" opacity="1.00" d=" M 16.25 83.35 C 15.68 92.59 19.64 100.61 23.05 110.74 C 16.78 104.85 11.23 91.53 16.25 83.35 Z" />
<path fill="#5b5b5b" opacity="1.00" d=" M 70.91 89.06 C 74.33 88.96 85.36 90.09 80.00 94.87 C 74.47 98.41 86.33 100.02 84.47 104.69 C 81.99 112.48 81.90 120.72 80.91 128.77 C 87.85 129.56 84.16 121.28 87.75 117.92 C 80.85 141.69 113.52 137.64 127.93 135.24 C 124.51 130.84 127.97 129.56 132.31 130.50 C 130.81 130.83 125.84 132.22 129.48 133.38 C 135.67 136.51 124.74 137.31 122.02 138.01 C 117.78 139.87 107.47 134.79 106.02 139.85 C 111.19 151.23 124.08 156.03 136.42 154.34 C 123.37 155.40 110.00 153.99 97.41 150.67 C 91.05 145.67 83.64 142.33 75.45 142.10 C 74.92 126.76 83.59 107.87 69.84 95.76 C 75.50 95.21 77.93 89.97 70.91 89.06 Z" />
<path fill="#5b5b5b" opacity="1.00" d=" M 235.24 101.61 C 236.56 94.21 243.76 103.53 242.87 95.71 C 243.08 131.74 243.07 167.78 242.90 203.81 C 245.40 215.72 233.28 204.11 228.24 208.99 C 217.64 217.81 208.35 228.66 194.70 232.95 C 172.00 233.07 149.30 233.03 126.60 232.93 C 135.68 222.79 149.26 215.87 163.17 216.36 C 181.51 210.72 196.64 195.23 197.38 175.57 C 197.22 170.25 191.94 169.95 188.15 168.38 C 177.22 185.28 156.17 196.72 135.87 193.13 C 119.27 194.88 94.90 193.85 88.74 174.56 C 100.11 173.30 111.81 176.51 122.93 174.95 C 117.32 172.11 106.94 173.45 102.40 166.67 C 94.95 159.82 85.39 164.50 76.61 164.36 C 71.42 161.83 71.19 154.42 73.70 149.85 C 79.44 146.51 77.88 158.46 84.62 156.53 C 98.43 163.13 113.29 155.22 127.53 159.39 C 123.29 159.59 97.82 160.07 112.26 161.90 C 110.38 163.38 103.41 165.51 110.83 166.86 C 118.46 173.60 129.09 169.17 137.25 173.82 C 127.38 183.84 102.75 166.85 100.18 182.59 C 118.40 195.23 145.44 193.31 164.10 183.06 C 183.80 180.01 181.08 146.53 202.57 146.56 C 209.19 138.59 207.92 124.30 217.82 119.20 C 229.12 130.81 234.40 109.98 235.24 101.61 Z" />
<path fill="#5b5b5b" opacity="1.00" d=" M 257.82 217.88 C 277.86 216.04 296.12 228.46 315.16 232.92 C 296.16 232.89 277.16 233.26 258.17 232.92 C 257.59 227.93 257.89 222.88 257.82 217.88 Z" />
<path fill="#5b5b5b" opacity="1.00" d=" M 374.48 250.00 C 368.16 245.31 374.54 233.98 380.33 241.71 C 387.26 249.40 370.78 249.86 375.06 239.73 C 373.17 242.98 373.36 247.42 376.29 250.00 L 374.48 250.00 Z" />
<path fill="#5b5b5b" opacity="1.00" d=" M 121.11 241.32 C 129.31 241.64 119.55 254.34 119.13 245.33 C 125.59 243.89 115.82 242.06 121.11 241.32 Z" />
</g>
<g id="#030303ff">
<path fill="#030303" opacity="1.00" d=" M 1.00 0.00 L 67.34 0.00 C 58.26 15.57 74.80 29.69 66.80 44.30 C 73.64 54.57 77.74 65.26 67.09 75.55 C 75.05 75.02 96.98 77.93 90.60 64.53 C 85.69 54.25 104.01 61.17 109.04 62.73 C 114.55 70.68 112.40 81.43 109.10 89.90 C 113.93 94.20 111.54 99.41 110.21 104.68 C 120.58 116.76 133.71 128.11 150.65 128.26 C 151.23 135.44 144.14 131.47 140.43 130.33 C 137.71 130.30 135.02 130.50 132.31 130.50 C 127.97 129.56 124.51 130.84 127.93 135.24 C 113.52 137.64 80.85 141.69 87.75 117.92 C 87.94 117.59 88.33 116.91 88.52 116.57 C 91.40 114.43 94.68 108.52 97.45 113.60 C 102.07 118.79 107.12 108.12 99.44 108.83 C 101.40 101.47 108.75 93.64 104.18 85.97 C 101.70 78.55 92.08 80.15 86.09 78.96 C 86.30 83.50 97.42 78.88 95.16 84.23 C 85.05 85.33 74.85 85.26 64.73 85.93 C 65.56 88.66 68.55 88.70 70.91 89.06 C 77.93 89.97 75.50 95.21 69.84 95.76 C 83.59 107.87 74.92 126.76 75.45 142.10 C 83.64 142.33 91.05 145.67 97.41 150.67 C 110.00 153.99 123.37 155.40 136.42 154.34 C 144.72 154.19 153.09 152.44 161.28 152.50 C 168.26 154.98 159.23 159.12 155.93 158.99 C 142.73 163.80 128.69 162.29 114.93 161.74 C 114.27 161.78 112.93 161.86 112.26 161.90 C 97.82 160.07 123.29 159.59 127.53 159.39 C 113.29 155.22 98.43 163.13 84.62 156.53 C 77.88 158.46 79.44 146.51 73.70 149.85 C 71.19 154.42 71.42 161.83 76.61 164.36 C 85.39 164.50 94.95 159.82 102.40 166.67 C 106.94 173.45 117.32 172.11 122.93 174.95 C 111.81 176.51 100.11 173.30 88.74 174.56 C 94.90 193.85 119.27 194.88 135.87 193.13 C 156.17 196.72 177.22 185.28 188.15 168.38 C 191.94 169.95 197.22 170.25 197.38 175.57 C 196.64 195.23 181.51 210.72 163.17 216.36 C 149.26 215.87 135.68 222.79 126.60 232.93 C 98.48 233.01 70.36 233.13 42.24 232.88 C 27.79 231.50 16.09 221.15 1.33 222.78 C 0.54 148.55 1.23 74.26 1.00 0.00 M 17.87 75.11 C 18.99 80.02 21.31 84.81 25.36 87.96 C 30.35 87.58 25.32 74.24 21.04 79.67 C 20.20 78.03 19.94 75.67 17.87 75.11 M 16.25 83.35 C 11.23 91.53 16.78 104.85 23.05 110.74 C 19.64 100.61 15.68 92.59 16.25 83.35 M 100.11 130.12 C 99.26 136.52 106.74 133.52 110.29 133.53 C 118.28 132.69 102.19 129.36 100.11 130.12 Z" />
<path fill="#030303" opacity="1.00" d=" M 258.00 0.00 L 336.32 0.00 C 334.87 8.33 332.66 17.56 337.99 25.08 C 344.62 35.26 326.18 46.12 336.70 55.33 C 349.14 59.05 368.79 53.25 373.80 70.22 C 370.45 85.25 365.40 109.88 384.80 116.17 C 391.45 121.83 399.56 124.50 408.10 126.02 C 405.26 136.00 389.86 121.72 385.23 130.16 C 382.02 137.46 371.51 133.56 365.64 134.05 C 368.52 127.10 355.05 125.28 358.63 133.04 C 355.11 137.44 346.38 132.95 342.46 129.62 C 343.17 122.60 344.02 114.74 349.97 110.00 C 358.19 104.56 357.71 92.85 359.39 84.64 C 348.65 81.69 335.82 86.66 324.18 85.07 C 322.61 90.28 331.80 88.27 332.70 92.02 C 329.60 98.88 338.07 103.90 336.67 111.08 C 338.20 119.79 329.51 135.48 342.81 138.27 C 361.68 153.87 387.78 151.24 410.61 150.55 C 412.68 150.76 419.65 148.20 419.08 152.89 C 391.11 161.28 357.17 159.57 331.21 148.20 C 324.53 171.91 358.91 150.47 363.86 167.99 C 360.58 171.90 342.76 169.00 350.22 177.76 C 372.05 196.70 406.44 190.69 430.33 178.32 C 438.65 171.31 451.08 150.37 460.83 164.46 C 468.07 159.49 476.73 157.51 485.04 155.07 C 477.47 166.80 463.52 173.56 457.71 186.71 C 445.24 207.36 419.84 212.43 399.08 220.03 C 389.47 222.08 402.58 229.72 395.91 233.13 C 368.99 232.80 342.08 233.18 315.16 232.92 C 296.12 228.46 277.86 216.04 257.82 217.88 C 258.23 145.25 257.89 72.63 258.00 0.00 Z" />
<path fill="#030303" opacity="1.00" d=" M 219.18 75.27 C 244.58 62.69 231.68 27.05 242.03 7.22 C 242.28 15.20 241.81 23.21 242.84 31.16 C 243.16 52.68 243.05 74.20 242.87 95.71 C 243.76 103.53 236.56 94.21 235.24 101.61 C 234.40 109.98 229.12 130.81 217.82 119.20 C 228.13 109.42 231.95 92.17 226.75 79.07 C 220.50 82.34 215.90 83.74 219.18 75.27 Z" />
<path fill="#030303" opacity="1.00" d=" M 494.96 24.97 C 496.89 21.69 493.37 7.42 500.00 12.22 L 500.00 99.34 C 495.57 104.60 489.85 108.61 487.90 115.85 C 486.96 122.28 473.87 122.51 477.79 114.96 C 482.27 111.33 483.49 105.34 485.22 100.11 C 487.49 93.87 488.42 82.71 481.80 79.39 C 473.72 81.65 478.46 71.76 482.63 69.62 C 496.20 59.10 491.32 39.80 494.96 24.97 Z" />
<path fill="#030303" opacity="1.00" d=" M 136.42 65.44 C 148.60 56.92 155.46 73.45 166.11 74.99 C 175.12 72.45 191.22 91.70 176.41 89.13 C 175.78 81.40 150.70 89.16 148.17 81.74 C 148.58 81.73 149.41 81.71 149.82 81.70 C 161.43 80.20 146.80 78.47 142.05 77.24 C 148.31 71.96 125.29 70.08 136.42 65.44 Z" />
<path fill="#030303" opacity="1.00" d=" M 398.65 63.41 C 408.71 59.72 412.72 72.88 421.64 74.39 C 428.30 75.83 439.86 78.67 438.87 87.73 C 430.63 84.12 420.87 86.47 412.09 84.02 C 407.33 76.41 395.52 77.27 390.99 68.87 C 391.12 65.18 395.68 64.03 398.65 63.41 Z" />
<path fill="#030303" opacity="1.00" d=" M 225.33 82.22 C 234.07 87.45 217.31 84.05 219.97 93.64 C 227.37 91.68 223.57 98.70 218.16 97.82 C 215.23 91.66 219.84 85.01 225.33 82.22 Z" />
<path fill="#030303" opacity="1.00" d=" M 117.40 250.00 C 114.03 246.64 113.79 240.51 118.61 238.42 C 117.11 242.11 115.93 246.91 119.20 250.00 L 117.40 250.00 Z" />
<path fill="#030303" opacity="1.00" d=" M 124.43 238.51 C 129.57 239.55 129.23 247.29 125.52 250.00 L 123.69 250.00 C 127.78 247.15 125.06 242.44 124.43 238.51 Z" />
<path fill="#030303" opacity="1.00" d=" M 382.40 238.60 C 387.07 240.95 386.66 247.33 382.51 250.00 L 381.64 250.00 C 384.26 246.55 383.70 242.44 382.40 238.60 Z" />
</g>
<g id="#9a9a9aff">
<path fill="#9a9a9a" opacity="1.00" d=" M 89.48 0.00 L 110.84 0.00 C 100.28 6.41 95.56 20.31 101.15 31.73 C 97.50 39.58 99.18 52.00 109.06 53.95 C 114.28 55.36 114.68 61.64 119.04 64.11 C 116.68 68.84 114.36 61.28 112.56 59.47 C 107.02 49.00 77.89 59.30 86.29 43.25 C 97.36 30.03 82.98 13.89 89.48 0.00 Z" />
<path fill="#9a9a9a" opacity="1.00" d=" M 180.51 0.00 L 222.20 0.00 C 232.98 5.40 225.35 18.15 226.34 27.26 C 223.43 43.13 227.08 60.61 219.18 75.27 C 215.90 83.74 220.50 82.34 226.75 79.07 C 231.95 92.17 228.13 109.42 217.82 119.20 C 207.92 124.30 209.19 138.59 202.57 146.56 C 181.08 146.53 183.80 180.01 164.10 183.06 C 145.44 193.31 118.40 195.23 100.18 182.59 C 102.75 166.85 127.38 183.84 137.25 173.82 C 129.09 169.17 118.46 173.60 110.83 166.86 C 103.41 165.51 110.38 163.38 112.26 161.90 C 112.93 161.86 114.27 161.78 114.93 161.74 C 116.57 174.58 143.95 166.06 151.82 170.83 C 139.53 179.16 122.34 178.27 107.75 180.91 C 128.48 195.02 161.39 187.49 173.51 165.30 C 169.60 156.48 163.74 158.34 155.93 158.99 C 159.23 159.12 168.26 154.98 161.28 152.50 C 153.09 152.44 144.72 154.19 136.42 154.34 C 124.08 156.03 111.19 151.23 106.02 139.85 C 107.47 134.79 117.78 139.87 122.02 138.01 C 116.12 135.67 110.80 146.04 120.14 142.11 C 129.52 138.34 127.97 155.00 136.88 152.67 C 147.51 154.20 157.64 144.29 167.62 151.34 C 168.21 134.77 154.33 123.87 150.20 109.03 C 162.01 109.87 170.81 123.83 166.59 134.91 C 168.60 141.23 168.68 147.88 169.81 154.37 C 176.79 143.53 174.76 127.42 171.23 115.07 C 168.74 101.43 188.50 106.94 190.76 95.78 C 189.31 91.44 191.34 83.60 185.35 82.79 C 191.49 89.63 179.42 96.46 176.41 89.13 C 191.22 91.70 175.12 72.45 166.11 74.99 C 159.06 72.83 159.50 64.31 154.41 60.24 C 145.20 57.77 134.18 57.83 127.31 65.42 C 124.79 68.36 121.66 65.25 119.04 64.11 C 119.35 61.00 118.11 55.87 122.34 55.38 C 137.92 55.63 153.82 53.92 168.85 59.22 C 179.48 62.71 186.44 50.60 187.96 41.96 C 191.66 27.75 196.94 8.31 180.51 0.00 M 225.33 82.22 C 219.84 85.01 215.23 91.66 218.16 97.82 C 223.57 98.70 227.37 91.68 219.97 93.64 C 217.31 84.05 234.07 87.45 225.33 82.22 Z" />
<path fill="#9a9a9a" opacity="1.00" d=" M 350.58 0.00 L 373.77 0.00 C 362.83 8.22 353.77 21.03 359.52 34.85 C 354.75 48.73 372.25 65.59 386.48 59.39 C 407.23 53.19 429.70 61.04 446.91 71.96 C 446.29 61.87 447.69 48.31 459.76 45.79 C 466.48 31.96 461.61 13.33 454.59 0.00 L 479.26 0.00 C 481.27 3.08 485.97 5.52 485.37 9.72 C 483.33 28.18 483.57 47.01 480.41 65.29 C 477.79 70.20 470.49 80.72 480.34 82.16 C 472.99 88.55 473.97 98.30 475.23 106.90 C 484.17 103.30 473.19 86.77 484.73 87.03 C 487.75 90.52 484.51 96.10 485.22 100.11 C 483.49 105.34 482.27 111.33 477.79 114.96 C 463.08 119.53 470.94 144.26 454.77 146.77 C 442.84 152.45 438.93 166.13 430.19 175.14 C 411.59 187.65 387.92 189.20 366.39 183.66 C 362.90 181.43 353.94 179.25 358.27 174.29 C 368.43 170.88 380.17 175.07 390.39 171.06 C 386.59 163.63 369.07 171.17 368.09 160.26 C 385.20 155.41 405.20 162.69 421.20 153.13 C 423.02 142.85 407.07 149.33 401.70 149.72 C 390.03 148.85 372.40 152.69 367.04 138.88 C 369.57 132.16 382.32 139.48 386.24 132.29 C 392.54 123.38 409.42 139.10 410.81 124.08 C 398.56 122.12 388.36 113.70 376.72 109.19 C 372.59 97.42 368.00 70.02 387.06 72.36 C 401.92 84.54 421.98 87.07 440.31 89.39 C 445.48 79.24 427.43 74.44 420.74 71.30 C 416.57 57.38 397.63 55.78 387.04 63.14 C 382.41 67.02 374.51 65.85 370.97 61.04 C 364.40 52.98 352.14 52.44 344.11 49.07 C 355.69 34.76 342.56 15.11 350.58 0.00 M 382.51 76.29 C 374.13 80.68 376.92 91.12 377.49 98.67 C 375.98 107.37 382.40 112.95 391.16 110.40 C 396.10 117.59 408.64 119.75 407.72 107.63 C 413.68 105.65 418.96 111.41 424.07 113.95 C 428.73 111.69 425.79 101.79 432.72 101.65 C 436.23 101.46 444.97 98.79 442.34 93.77 C 436.03 91.29 428.97 86.59 422.09 89.02 C 427.26 96.87 412.06 93.81 408.77 90.46 C 409.18 83.45 400.91 80.82 395.22 82.57 C 388.40 85.04 388.90 73.75 382.51 76.29 M 413.66 126.52 C 407.35 140.19 391.65 128.12 383.02 138.07 C 390.05 154.69 409.24 145.43 421.97 143.04 C 425.56 137.69 419.74 125.87 413.66 126.52 M 421.52 155.45 C 408.67 159.52 395.51 161.45 381.95 159.94 C 376.66 155.11 375.20 163.94 379.06 164.04 C 387.16 166.32 395.73 165.64 403.99 166.97 C 396.62 178.20 377.28 172.78 369.25 178.64 C 389.00 187.85 415.65 183.15 428.71 164.45 C 430.74 159.96 426.58 153.36 421.52 155.45 Z" />
<path fill="#9a9a9a" opacity="1.00" d=" M 123.09 69.44 C 128.48 71.06 133.37 73.85 136.47 78.66 C 139.81 81.57 155.92 78.25 149.82 81.70 C 149.41 81.71 148.58 81.73 148.17 81.74 C 139.86 84.21 133.21 80.46 128.62 74.20 C 112.07 76.02 118.18 96.76 119.51 107.18 C 120.95 117.63 135.35 107.73 138.61 117.48 C 142.55 122.53 149.05 120.71 152.15 115.79 C 153.90 120.75 157.60 128.07 152.11 132.02 C 152.96 129.53 155.32 120.65 150.43 124.40 C 146.46 130.26 141.63 120.87 136.64 124.17 C 138.71 116.93 127.78 113.58 122.31 113.99 C 112.51 101.80 111.77 81.27 123.09 69.44 Z" />
<path fill="#9a9a9a" opacity="1.00" d=" M 95.16 84.23 C 104.56 80.92 100.90 89.82 96.88 94.26 C 100.01 103.33 92.74 109.59 88.52 116.57 C 88.33 116.91 87.94 117.59 87.75 117.92 C 84.16 121.28 87.85 129.56 80.91 128.77 C 81.90 120.72 81.99 112.48 84.47 104.69 C 86.33 100.02 74.47 98.41 80.00 94.87 C 85.36 90.09 74.33 88.96 70.91 89.06 C 68.55 88.70 65.56 88.66 64.73 85.93 C 74.85 85.26 85.05 85.33 95.16 84.23 Z" />
<path fill="#9a9a9a" opacity="1.00" d=" M 447.41 224.27 C 467.97 218.98 479.30 197.40 500.00 192.63 L 500.00 209.95 C 493.92 209.80 486.57 207.52 481.72 212.72 C 471.37 222.25 457.44 225.61 445.74 232.92 C 434.05 233.14 422.36 232.94 410.67 233.01 C 419.84 223.07 435.16 224.78 447.41 224.27 Z" />
</g>
<g id="#d4d4d4ff">
<path fill="#d4d4d4" opacity="1.00" d=" M 110.84 0.00 L 180.51 0.00 C 196.94 8.31 191.66 27.75 187.96 41.96 C 186.44 50.60 179.48 62.71 168.85 59.22 C 153.82 53.92 137.92 55.63 122.34 55.38 C 118.11 55.87 119.35 61.00 119.04 64.11 C 114.68 61.64 114.28 55.36 109.06 53.95 C 99.18 52.00 97.50 39.58 101.15 31.73 C 95.56 20.31 100.28 6.41 110.84 0.00 M 153.57 5.49 C 141.86 7.20 116.61 11.09 126.42 27.49 C 134.47 31.87 123.38 40.62 129.73 46.18 C 137.92 57.01 153.23 51.13 164.34 55.75 C 174.73 58.94 175.58 43.41 172.88 37.29 C 166.82 28.38 179.88 21.78 176.27 12.78 C 170.33 7.38 161.69 3.86 153.57 5.49 Z" />
<path fill="#d4d4d4" opacity="1.00" d=" M 373.77 0.00 L 454.59 0.00 C 461.61 13.33 466.48 31.96 459.76 45.79 C 447.69 48.31 446.29 61.87 446.91 71.96 C 429.70 61.04 407.23 53.19 386.48 59.39 C 372.25 65.59 354.75 48.73 359.52 34.85 C 353.77 21.03 362.83 8.22 373.77 0.00 M 413.35 7.43 C 402.06 8.24 388.02 10.33 382.08 21.17 C 384.20 27.98 388.16 34.28 385.40 41.77 C 390.31 58.21 413.00 51.18 425.73 55.78 C 438.31 49.20 422.23 33.55 431.98 24.88 C 438.26 13.31 422.64 6.84 413.35 7.43 Z" />
<path fill="#d4d4d4" opacity="1.00" d=" M 119.51 107.18 C 118.18 96.76 112.07 76.02 128.62 74.20 C 133.21 80.46 139.86 84.21 148.17 81.74 C 150.70 89.16 175.78 81.40 176.41 89.13 C 179.42 96.46 191.49 89.63 185.35 82.79 C 191.34 83.60 189.31 91.44 190.76 95.78 C 188.50 106.94 168.74 101.43 171.23 115.07 C 174.76 127.42 176.79 143.53 169.81 154.37 C 168.68 147.88 168.60 141.23 166.59 134.91 C 170.81 123.83 162.01 109.87 150.20 109.03 C 154.33 123.87 168.21 134.77 167.62 151.34 C 157.64 144.29 147.51 154.20 136.88 152.67 C 127.97 155.00 129.52 138.34 120.14 142.11 C 110.80 146.04 116.12 135.67 122.02 138.01 C 124.74 137.31 135.67 136.51 129.48 133.38 C 125.84 132.22 130.81 130.83 132.31 130.50 C 135.02 130.50 137.71 130.30 140.43 130.33 C 141.46 136.60 146.01 136.61 152.11 132.02 C 157.60 128.07 153.90 120.75 152.15 115.79 C 149.05 120.71 142.55 122.53 138.61 117.48 C 135.35 107.73 120.95 117.63 119.51 107.18 M 125.42 78.22 C 115.88 86.06 123.05 100.46 122.58 110.59 C 133.76 104.77 137.53 115.69 146.63 117.66 C 143.87 110.61 150.38 113.20 148.21 107.12 C 154.33 103.65 159.71 110.85 165.70 110.89 C 170.04 107.73 166.29 103.07 166.24 99.13 C 171.17 97.89 182.67 100.92 181.80 93.13 C 170.01 93.62 156.47 97.69 145.64 89.64 C 158.34 89.30 145.03 86.51 150.38 83.91 C 144.61 79.83 139.56 88.24 133.67 84.77 C 130.81 83.10 129.45 77.11 125.42 78.22 Z" />
<path fill="#d4d4d4" opacity="1.00" d=" M 17.87 75.11 C 19.94 75.67 20.20 78.03 21.04 79.67 C 25.32 74.24 30.35 87.58 25.36 87.96 C 21.31 84.81 18.99 80.02 17.87 75.11 Z" />
<path fill="#d4d4d4" opacity="1.00" d=" M 382.51 76.29 C 388.90 73.75 388.40 85.04 395.22 82.57 C 400.91 80.82 409.18 83.45 408.77 90.46 C 412.06 93.81 427.26 96.87 422.09 89.02 C 428.97 86.59 436.03 91.29 442.34 93.77 C 444.97 98.79 436.23 101.46 432.72 101.65 C 425.79 101.79 428.73 111.69 424.07 113.95 C 418.96 111.41 413.68 105.65 407.72 107.63 C 408.64 119.75 396.10 117.59 391.16 110.40 C 382.40 112.95 375.98 107.37 377.49 98.67 C 376.92 91.12 374.13 80.68 382.51 76.29 Z" />
<path fill="#d4d4d4" opacity="1.00" d=" M 413.66 126.52 C 419.74 125.87 425.56 137.69 421.97 143.04 C 409.24 145.43 390.05 154.69 383.02 138.07 C 391.65 128.12 407.35 140.19 413.66 126.52 Z" />
<path fill="#d4d4d4" opacity="1.00" d=" M 100.11 130.12 C 102.19 129.36 118.28 132.69 110.29 133.53 C 106.74 133.52 99.26 136.52 100.11 130.12 Z" />
<path fill="#d4d4d4" opacity="1.00" d=" M 421.52 155.45 C 426.58 153.36 430.74 159.96 428.71 164.45 C 415.65 183.15 389.00 187.85 369.25 178.64 C 377.28 172.78 396.62 178.20 403.99 166.97 C 395.73 165.64 387.16 166.32 379.06 164.04 C 375.20 163.94 376.66 155.11 381.95 159.94 C 395.51 161.45 408.67 159.52 421.52 155.45 Z" />
<path fill="#d4d4d4" opacity="1.00" d=" M 155.93 158.99 C 163.74 158.34 169.60 156.48 173.51 165.30 C 161.39 187.49 128.48 195.02 107.75 180.91 C 122.34 178.27 139.53 179.16 151.82 170.83 C 143.95 166.06 116.57 174.58 114.93 161.74 C 128.69 162.29 142.73 163.80 155.93 158.99 Z" />
<path fill="#d4d4d4" opacity="1.00" d=" M 228.24 208.99 C 233.28 204.11 245.40 215.72 242.90 203.81 C 242.02 213.34 245.19 224.37 241.69 233.00 C 226.03 233.29 210.36 232.83 194.70 232.95 C 208.35 228.66 217.64 217.81 228.24 208.99 Z" />
<path fill="#d4d4d4" opacity="1.00" d=" M 481.72 212.72 C 486.57 207.52 493.92 209.80 500.00 209.95 L 500.00 232.99 C 481.91 233.02 463.82 233.02 445.74 232.92 C 457.44 225.61 471.37 222.25 481.72 212.72 Z" />
</g>
<g id="#fcfcfcff">
<path fill="#fcfcfc" opacity="1.00" d=" M 242.81 0.00 L 258.00 0.00 C 257.89 72.63 258.23 145.25 257.82 217.88 C 257.89 222.88 257.59 227.93 258.17 232.92 C 277.16 233.26 296.16 232.89 315.16 232.92 C 342.08 233.18 368.99 232.80 395.91 233.13 C 400.82 233.08 405.75 233.12 410.67 233.01 C 422.36 232.94 434.05 233.14 445.74 232.92 C 463.82 233.02 481.91 233.02 500.00 232.99 L 500.00 250.00 L 382.51 250.00 C 386.66 247.33 387.07 240.95 382.40 238.60 C 383.70 242.44 384.26 246.55 381.64 250.00 L 376.29 250.00 C 373.36 247.42 373.17 242.98 375.06 239.73 C 370.78 249.86 387.26 249.40 380.33 241.71 C 374.54 233.98 368.16 245.31 374.48 250.00 L 125.52 250.00 C 129.23 247.29 129.57 239.55 124.43 238.51 C 125.06 242.44 127.78 247.15 123.69 250.00 L 119.20 250.00 C 115.93 246.91 117.11 242.11 118.61 238.42 C 113.79 240.51 114.03 246.64 117.40 250.00 L 0.00 250.00 L 0.00 232.99 C 14.08 233.05 28.16 232.98 42.24 232.88 C 70.36 233.13 98.48 233.01 126.60 232.93 C 149.30 233.03 172.00 233.07 194.70 232.95 C 210.36 232.83 226.03 233.29 241.69 233.00 C 245.19 224.37 242.02 213.34 242.90 203.81 C 243.07 167.78 243.08 131.74 242.87 95.71 C 243.05 74.20 243.16 52.68 242.84 31.16 C 243.02 20.78 243.13 10.39 242.81 0.00 M 121.11 241.32 C 115.82 242.06 125.59 243.89 119.13 245.33 C 119.55 254.34 129.31 241.64 121.11 241.32 Z" />
<path fill="#fcfcfc" opacity="1.00" d=" M 153.57 5.49 C 161.69 3.86 170.33 7.38 176.27 12.78 C 179.88 21.78 166.82 28.38 172.88 37.29 C 175.58 43.41 174.73 58.94 164.34 55.75 C 153.23 51.13 137.92 57.01 129.73 46.18 C 123.38 40.62 134.47 31.87 126.42 27.49 C 116.61 11.09 141.86 7.20 153.57 5.49 Z" />
<path fill="#fcfcfc" opacity="1.00" d=" M 413.35 7.43 C 422.64 6.84 438.26 13.31 431.98 24.88 C 422.23 33.55 438.31 49.20 425.73 55.78 C 413.00 51.18 390.31 58.21 385.40 41.77 C 388.16 34.28 384.20 27.98 382.08 21.17 C 388.02 10.33 402.06 8.24 413.35 7.43 Z" />
<path fill="#fcfcfc" opacity="1.00" d=" M 125.42 78.22 C 129.45 77.11 130.81 83.10 133.67 84.77 C 139.56 88.24 144.61 79.83 150.38 83.91 C 145.03 86.51 158.34 89.30 145.64 89.64 C 156.47 97.69 170.01 93.62 181.80 93.13 C 182.67 100.92 171.17 97.89 166.24 99.13 C 166.29 103.07 170.04 107.73 165.70 110.89 C 159.71 110.85 154.33 103.65 148.21 107.12 C 150.38 113.20 143.87 110.61 146.63 117.66 C 137.53 115.69 133.76 104.77 122.58 110.59 C 123.05 100.46 115.88 86.06 125.42 78.22 Z" />
</g>
</svg>
