<?xml version="1.0" encoding="UTF-8" ?>
<!DOCTYPE svg PUBLIC "-//W3C//DTD SVG 1.1//EN" "http://www.w3.org/Graphics/SVG/1.1/DTD/svg11.dtd">
<svg width="960pt" height="540pt" viewBox="0 0 960 540" version="1.1" xmlns="http://www.w3.org/2000/svg">
<g id="#000000ff">
<path fill="#000000" opacity="1.00" d=" M 0.00 0.00 L 960.00 0.00 L 960.00 540.00 L 0.00 540.00 L 0.00 0.00 M 218.34 20.31 C 211.39 35.46 210.11 53.26 205.11 68.31 C 198.27 54.74 205.06 38.56 201.75 24.34 C 201.09 20.11 194.90 19.54 193.35 23.39 C 188.77 36.76 190.19 51.24 186.81 64.86 C 176.26 58.06 192.24 23.94 175.99 24.77 C 164.38 49.18 172.73 78.67 166.55 104.58 C 160.22 131.18 162.06 160.92 176.23 184.77 C 190.39 207.81 215.68 219.02 237.41 233.26 C 230.17 240.54 221.15 246.33 215.79 255.26 C 203.31 274.61 194.00 298.87 185.14 320.96 C 195.30 326.08 209.79 321.99 221.13 326.75 C 217.67 330.25 218.22 335.55 219.01 339.98 C 220.14 346.26 224.93 356.63 232.59 350.74 C 241.54 348.33 237.21 334.32 246.07 330.65 C 262.56 337.22 267.68 368.80 242.89 364.77 C 250.64 367.31 260.74 366.79 265.19 358.97 C 271.14 353.61 272.10 344.73 278.64 339.44 C 275.91 333.36 277.00 325.66 282.01 321.16 C 287.92 331.17 276.45 346.88 288.14 355.88 C 302.85 368.11 322.80 370.58 341.02 373.95 C 349.45 401.20 357.27 428.74 366.09 455.82 C 377.04 430.71 385.89 401.40 395.84 374.82 C 418.57 372.29 443.18 367.45 458.23 349.71 C 468.41 350.22 478.99 352.77 488.96 351.90 C 514.04 335.03 541.62 318.49 563.75 299.02 C 551.83 281.43 534.25 267.02 519.88 250.88 C 557.27 238.39 596.01 214.84 611.24 177.08 C 619.49 154.03 599.26 133.37 608.85 110.36 C 596.08 105.05 596.28 129.95 594.01 134.36 C 586.19 124.80 602.41 103.42 589.93 99.83 C 581.10 105.81 581.86 118.91 578.11 128.02 C 573.45 116.72 579.93 105.20 578.77 93.67 C 578.86 91.06 574.24 88.29 573.29 91.43 C 563.59 99.14 563.13 116.04 561.14 127.96 C 552.15 119.17 567.04 97.40 553.14 95.06 C 543.14 105.10 544.57 125.40 546.92 139.12 C 534.11 137.17 542.96 114.38 529.92 117.72 C 520.58 125.07 524.70 142.50 533.75 149.28 C 539.34 157.50 554.21 166.46 548.21 178.16 C 538.85 201.97 513.87 213.47 491.14 221.03 C 455.73 183.40 419.91 146.19 383.82 109.23 C 380.82 106.11 376.15 100.25 371.79 104.70 C 335.99 138.57 299.93 172.24 264.99 206.98 C 249.60 196.62 233.67 186.59 222.01 171.86 C 220.37 167.72 217.51 164.12 216.18 159.87 C 222.82 130.99 245.20 109.47 269.08 94.08 C 275.69 88.40 279.87 77.65 277.75 69.27 C 263.21 62.39 259.90 88.34 245.56 84.93 C 238.10 70.34 245.63 54.76 247.96 39.98 C 250.77 33.27 242.40 30.48 239.75 35.83 C 233.91 47.79 229.33 60.47 226.21 73.39 C 220.06 56.70 229.41 38.02 226.41 20.82 C 224.79 17.91 220.65 18.51 218.34 20.31 Z" />
<path fill="#000000" opacity="1.00" d=" M 362.18 159.18 C 378.35 136.39 419.86 147.74 425.18 174.41 C 410.36 178.05 395.21 170.00 380.11 169.85 C 374.36 167.76 361.54 169.13 360.71 161.67 C 361.20 160.84 361.69 160.01 362.18 159.18 Z" />
</g>
<g id="#99d730ff">
<path fill="#99d730" opacity="1.00" d=" M 218.34 20.31 C 220.65 18.51 224.79 17.91 226.41 20.82 C 229.41 38.02 220.06 56.70 226.21 73.39 C 229.33 60.47 233.91 47.79 239.75 35.83 C 242.40 30.48 250.77 33.27 247.96 39.98 C 245.63 54.76 238.10 70.34 245.56 84.93 C 259.90 88.34 263.21 62.39 277.75 69.27 C 279.87 77.65 275.69 88.40 269.08 94.08 C 249.17 102.05 234.92 117.95 218.29 130.38 C 203.31 128.57 185.59 125.53 174.32 114.56 C 172.86 84.93 169.99 54.25 175.99 24.77 C 192.24 23.94 176.26 58.06 186.81 64.86 C 190.19 51.24 188.77 36.76 193.35 23.39 C 194.90 19.54 201.09 20.11 201.75 24.34 C 205.06 38.56 198.27 54.74 205.11 68.31 C 210.11 53.26 211.39 35.46 218.34 20.31 Z" />
<path fill="#99d730" opacity="1.00" d=" M 573.29 91.43 C 574.24 88.29 578.86 91.06 578.77 93.67 C 579.93 105.20 573.45 116.72 578.11 128.02 C 578.58 132.54 581.43 136.12 584.52 139.27 C 580.02 125.31 588.51 113.15 589.93 99.83 C 602.41 103.42 586.19 124.80 594.01 134.36 C 596.28 129.95 596.08 105.05 608.85 110.36 C 599.26 133.37 619.49 154.03 611.24 177.08 C 601.67 190.08 581.73 184.14 568.44 181.05 C 560.50 172.76 560.39 160.54 557.80 149.98 C 556.98 153.18 557.84 161.11 552.19 159.92 C 536.81 151.45 523.38 136.22 529.92 117.72 C 542.96 114.38 534.11 137.17 546.92 139.12 C 552.26 143.95 558.58 139.35 554.91 133.19 C 547.37 121.13 554.60 107.89 553.14 95.06 C 567.04 97.40 552.15 119.17 561.14 127.96 C 562.17 132.03 571.74 141.27 568.18 130.97 C 562.34 117.42 572.55 104.77 573.29 91.43 Z" />
<path fill="#99d730" opacity="1.00" d=" M 222.01 171.86 C 233.67 186.59 249.60 196.62 264.99 206.98 C 264.06 208.00 263.08 208.97 262.06 209.90 C 252.79 201.98 241.89 196.27 233.31 187.49 C 223.34 180.86 218.89 197.44 222.13 204.35 C 232.42 207.42 239.94 216.80 250.10 221.10 C 248.86 222.43 247.64 223.78 246.35 225.07 C 244.43 222.95 242.43 220.91 240.35 218.95 C 226.73 220.30 211.63 209.34 205.88 197.00 C 199.22 185.20 214.51 177.95 222.01 171.86 Z" />
<path fill="#99d730" opacity="1.00" d=" M 221.13 326.75 C 232.07 317.22 246.77 323.93 256.05 332.20 C 262.32 339.54 268.00 348.90 265.19 358.97 C 260.74 366.79 250.64 367.31 242.89 364.77 C 267.68 368.80 262.56 337.22 246.07 330.65 C 238.55 325.38 222.63 323.06 221.60 335.67 C 220.66 336.83 221.08 345.08 219.01 339.98 C 218.22 335.55 217.67 330.25 221.13 326.75 Z" />
</g>
<g id="#9f6925ff">
<path fill="#9f6925" opacity="1.00" d=" M 166.55 104.58 C 172.73 78.67 164.38 49.18 175.99 24.77 C 169.99 54.25 172.86 84.93 174.32 114.56 C 185.59 125.53 203.31 128.57 218.29 130.38 C 234.92 117.95 249.17 102.05 269.08 94.08 C 245.20 109.47 222.82 130.99 216.18 159.87 C 217.51 164.12 220.37 167.72 222.01 171.86 C 214.51 177.95 199.22 185.20 205.88 197.00 C 211.63 209.34 226.73 220.30 240.35 218.95 C 242.43 220.91 244.43 222.95 246.35 225.07 C 243.53 227.96 240.70 230.89 237.41 233.26 C 215.68 219.02 190.39 207.81 176.23 184.77 C 162.06 160.92 160.22 131.18 166.55 104.58 Z" />
<path fill="#9f6925" opacity="1.00" d=" M 561.14 127.96 C 563.13 116.04 563.59 99.14 573.29 91.43 C 572.55 104.77 562.34 117.42 568.18 130.97 C 571.74 141.27 562.17 132.03 561.14 127.96 Z" />
<path fill="#9f6925" opacity="1.00" d=" M 546.92 139.12 C 544.57 125.40 543.14 105.10 553.14 95.06 C 554.60 107.89 547.37 121.13 554.91 133.19 C 558.58 139.35 552.26 143.95 546.92 139.12 Z" />
<path fill="#9f6925" opacity="1.00" d=" M 578.11 128.02 C 581.86 118.91 581.10 105.81 589.93 99.83 C 588.51 113.15 580.02 125.31 584.52 139.27 C 581.43 136.12 578.58 132.54 578.11 128.02 Z" />
<path fill="#9f6925" opacity="1.00" d=" M 533.75 149.28 C 524.70 142.50 520.58 125.07 529.92 117.72 C 523.38 136.22 536.81 151.45 552.19 159.92 C 557.84 161.11 556.98 153.18 557.80 149.98 C 560.39 160.54 560.50 172.76 568.44 181.05 C 581.73 184.14 601.67 190.08 611.24 177.08 C 596.01 214.84 557.27 238.39 519.88 250.88 C 510.14 241.10 500.50 231.17 491.14 221.03 C 513.87 213.47 538.85 201.97 548.21 178.16 C 554.21 166.46 539.34 157.50 533.75 149.28 Z" />
<path fill="#9f6925" opacity="1.00" d=" M 185.14 320.96 C 194.00 298.87 203.31 274.61 215.79 255.26 C 331.42 271.89 447.74 284.81 563.75 299.02 C 541.62 318.49 514.04 335.03 488.96 351.90 C 478.99 352.77 468.41 350.22 458.23 349.71 C 456.78 349.13 454.16 349.16 455.07 346.91 C 456.29 330.25 458.85 305.07 439.83 297.16 C 431.77 291.64 425.00 293.83 418.41 289.53 C 395.45 284.08 371.43 282.08 347.93 284.17 C 325.34 285.86 299.25 287.97 283.70 306.62 C 273.73 307.83 264.54 316.11 266.20 326.76 C 260.77 321.15 259.41 328.60 256.05 332.20 C 246.77 323.93 232.07 317.22 221.13 326.75 C 209.79 321.99 195.30 326.08 185.14 320.96 Z" />
<path fill="#9f6925" opacity="1.00" d=" M 352.22 337.22 C 367.25 333.23 383.95 336.41 396.73 345.21 C 397.89 348.59 399.58 351.74 401.17 354.92 C 382.04 345.20 357.76 345.48 337.85 352.87 C 342.49 347.69 344.76 338.93 352.22 337.22 Z" />
</g>
<g id="#feb746ff">
<path fill="#feb746" opacity="1.00" d=" M 371.79 104.70 C 376.15 100.25 380.82 106.11 383.82 109.23 C 419.91 146.19 455.73 183.40 491.14 221.03 C 500.50 231.17 510.14 241.10 519.88 250.88 C 534.25 267.02 551.83 281.43 563.75 299.02 C 447.74 284.81 331.42 271.89 215.79 255.26 C 221.15 246.33 230.17 240.54 237.41 233.26 C 240.70 230.89 243.53 227.96 246.35 225.07 C 247.64 223.78 248.86 222.43 250.10 221.10 C 254.07 217.34 258.06 213.62 262.06 209.90 C 263.08 208.97 264.06 208.00 264.99 206.98 C 299.93 172.24 335.99 138.57 371.79 104.70 M 362.18 159.18 C 334.89 160.73 328.11 196.73 348.04 212.96 C 339.93 216.89 347.38 225.65 352.33 228.71 C 375.72 246.08 407.62 251.62 435.82 245.80 C 444.72 244.59 454.50 233.51 444.32 226.88 C 452.04 215.29 449.89 198.39 439.82 189.15 C 435.37 184.09 430.57 177.52 425.18 174.41 C 419.86 147.74 378.35 136.39 362.18 159.18 Z" />
</g>
<g id="#408893ff">
<path fill="#408893" opacity="1.00" d=" M 348.04 212.96 C 328.11 196.73 334.89 160.73 362.18 159.18 C 361.69 160.01 361.20 160.84 360.71 161.67 C 339.62 164.54 335.35 192.64 348.55 206.55 C 377.27 192.78 420.63 195.22 444.09 220.03 C 447.90 209.70 445.27 198.39 439.82 189.15 C 449.89 198.39 452.04 215.29 444.32 226.88 C 454.50 233.51 444.72 244.59 435.82 245.80 C 407.62 251.62 375.72 246.08 352.33 228.71 C 347.38 225.65 339.93 216.89 348.04 212.96 Z" />
<path fill="#408893" opacity="1.00" d=" M 347.93 284.17 C 371.43 282.08 395.45 284.08 418.41 289.53 C 406.80 301.32 428.72 320.44 413.32 330.42 C 407.87 335.93 400.38 337.43 396.73 345.21 C 383.95 336.41 367.25 333.23 352.22 337.22 C 357.34 328.06 336.08 333.25 350.85 331.14 C 357.94 330.10 343.32 328.01 349.55 328.40 C 357.01 326.27 338.21 326.40 344.75 321.78 C 350.98 316.74 344.14 308.75 347.66 302.66 C 350.76 296.84 348.67 290.29 347.93 284.17 M 375.26 295.76 C 375.89 301.72 379.13 308.92 372.44 312.50 C 374.08 320.35 382.40 329.95 390.94 324.26 C 384.06 321.35 389.57 317.44 391.09 313.11 C 388.35 313.87 385.69 314.88 383.14 316.13 C 387.00 306.90 393.20 289.99 375.26 295.76 Z" />
</g>
<g id="#e6e6e6ff">
<path fill="#e6e6e6" opacity="1.00" d=" M 348.55 206.55 C 335.35 192.64 339.62 164.54 360.71 161.67 C 361.54 169.13 374.36 167.76 380.11 169.85 C 395.21 170.00 410.36 178.05 425.18 174.41 C 430.57 177.52 435.37 184.09 439.82 189.15 C 445.27 198.39 447.90 209.70 444.09 220.03 C 420.63 195.22 377.27 192.78 348.55 206.55 Z" />
<path fill="#e6e6e6" opacity="1.00" d=" M 375.26 295.76 C 393.20 289.99 387.00 306.90 383.14 316.13 C 385.69 314.88 388.35 313.87 391.09 313.11 C 389.57 317.44 384.06 321.35 390.94 324.26 C 382.40 329.95 374.08 320.35 372.44 312.50 C 379.13 308.92 375.89 301.72 375.26 295.76 Z" />
</g>
<g id="#fdff1cff">
<path fill="#fdff1c" opacity="1.00" d=" M 222.13 204.35 C 218.89 197.44 223.34 180.86 233.31 187.49 C 241.89 196.27 252.79 201.98 262.06 209.90 C 258.06 213.62 254.07 217.34 250.10 221.10 C 239.94 216.80 232.42 207.42 222.13 204.35 Z" />
<path fill="#fdff1c" opacity="1.00" d=" M 337.85 352.87 C 357.76 345.48 382.04 345.20 401.17 354.92 C 402.72 361.84 397.18 368.14 395.84 374.82 C 385.89 401.40 377.04 430.71 366.09 455.82 C 357.27 428.74 349.45 401.20 341.02 373.95 C 340.28 367.12 333.61 359.47 337.85 352.87 Z" />
</g>
<g id="#262630ff">
<path fill="#262630" opacity="1.00" d=" M 283.70 306.62 C 299.25 287.97 325.34 285.86 347.93 284.17 C 348.67 290.29 350.76 296.84 347.66 302.66 C 344.14 308.75 350.98 316.74 344.75 321.78 C 338.21 326.40 357.01 326.27 349.55 328.40 C 343.32 328.01 357.94 330.10 350.85 331.14 C 336.08 333.25 357.34 328.06 352.22 337.22 C 344.76 338.93 342.49 347.69 337.85 352.87 C 333.61 359.47 340.28 367.12 341.02 373.95 C 322.80 370.58 302.85 368.11 288.14 355.88 C 276.45 346.88 287.92 331.17 282.01 321.16 C 277.00 325.66 275.91 333.36 278.64 339.44 C 272.10 344.73 271.14 353.61 265.19 358.97 C 268.00 348.90 262.32 339.54 256.05 332.20 C 259.41 328.60 260.77 321.15 266.20 326.76 C 264.54 316.11 273.73 307.83 283.70 306.62 Z" />
<path fill="#262630" opacity="1.00" d=" M 418.41 289.53 C 425.00 293.83 431.77 291.64 439.83 297.16 C 458.85 305.07 456.29 330.25 455.07 346.91 C 454.16 349.16 456.78 349.13 458.23 349.71 C 443.18 367.45 418.57 372.29 395.84 374.82 C 397.18 368.14 402.72 361.84 401.17 354.92 C 399.58 351.74 397.89 348.59 396.73 345.21 C 400.38 337.43 407.87 335.93 413.32 330.42 C 428.72 320.44 406.80 301.32 418.41 289.53 Z" />
<path fill="#262630" opacity="1.00" d=" M 221.60 335.67 C 222.63 323.06 238.55 325.38 246.07 330.65 C 237.21 334.32 241.54 348.33 232.59 350.74 C 224.93 356.63 220.14 346.26 219.01 339.98 C 221.08 345.08 220.66 336.83 221.60 335.67 Z" />
</g>
</svg>
